<svg xmlns="http://www.w3.org/2000/svg" width="72" height="72" viewBox="0 0 72 72">
  <g id="Group_9735" data-name="Group 9735" transform="translate(0.271 0.051)">
    <rect id="Rectangle_1537" data-name="Rectangle 1537" width="72" height="72" rx="20" transform="translate(-0.271 -0.051)" fill="none"/>
    <g id="_045-airpods" data-name="045-airpods" transform="translate(17.692 17.947)">
      <path id="Path_20578" data-name="Path 20578" d="M439.527,483.424v-1.143h4.547v1.143a.917.917,0,0,1-.915.914h-2.718A.917.917,0,0,1,439.527,483.424Z" transform="translate(-408.561 -448.339)" fill="#ccc"/>
      <path id="Path_20579" data-name="Path 20579" d="M441.7,483.424v-1.143h-2.178v1.143a.917.917,0,0,0,.914.914h2.178A.917.917,0,0,1,441.7,483.424Z" transform="translate(-408.56 -448.339)" fill="#bababa"/>
      <path id="Path_20580" data-name="Path 20580" d="M7.933,483.424v-1.143H12.48v1.143a.917.917,0,0,1-.914.914H8.847A.917.917,0,0,1,7.933,483.424Z" transform="translate(-7.374 -448.339)" fill="#ccc"/>
      <path id="Path_20581" data-name="Path 20581" d="M10.111,483.424v-1.143H7.933v1.143a.917.917,0,0,0,.914.914h2.178A.917.917,0,0,1,10.111,483.424Z" transform="translate(-7.374 -448.339)" fill="#bababa"/>
      <g id="Group_9823" data-name="Group 9823" transform="translate(0 0)">
        <path id="Path_20582" data-name="Path 20582" d="M295.751,2.657a7.323,7.323,0,0,0-5.2-2.142,8.741,8.741,0,0,0-7.384,4.28V10.46a8.741,8.741,0,0,0,7.384,4.28,6.175,6.175,0,0,0,3.1-.822V33.966a.564.564,0,0,0,.564.564h4.524a.552.552,0,0,0,.552-.552V12.086S299.318,5.837,295.751,2.657Z" transform="translate(-263.215 -0.515)" fill="#efefef"/>
        <path id="Path_20583" data-name="Path 20583" d="M16.122,4.8A8.742,8.742,0,0,0,8.739.515a7.323,7.323,0,0,0-5.2,2.142C-.031,5.837,0,12.086,0,12.086V33.978a.552.552,0,0,0,.552.552H5.076a.564.564,0,0,0,.564-.564V13.919a6.174,6.174,0,0,0,3.1.822,8.742,8.742,0,0,0,7.384-4.28Z" transform="translate(0 -0.515)" fill="#efefef"/>
      </g>
      <path id="Path_20584" data-name="Path 20584" d="M2.177,33.985V12.093s-.031-6.249,3.536-9.43A7.316,7.316,0,0,1,9.868.6,7.407,7.407,0,0,0,3.536,2.664C-.031,5.844,0,12.093,0,12.093V33.985a.552.552,0,0,0,.552.552H2.729A.552.552,0,0,1,2.177,33.985Z" transform="translate(0 -0.522)" fill="#ddd"/>
      <path id="Path_20585" data-name="Path 20585" d="M204.65,56.241a1.03,1.03,0,0,0-1.833.67v4.312a1.03,1.03,0,0,0,1.833.67V61.9" transform="translate(-188.528 -51.954)" fill="#efefef"/>
      <path id="Path_20586" data-name="Path 20586" d="M404.81,155.13c0-.007.03-1.913-1.242-2.632a.544.544,0,0,0-.536.948c.807.457.687,2.153.689,2.176A6.347,6.347,0,0,0,404.81,155.13Z" transform="translate(-374.38 -141.725)" fill="#ccc"/>
      <g id="Group_9824" data-name="Group 9824" transform="translate(14.289 2.362)">
        <path id="Path_20587" data-name="Path 20587" d="M428.907,37.994a7.22,7.22,0,0,0-1.731-2.428,5.68,5.68,0,0,0-.625-.539.544.544,0,0,1,.65-.874,8.52,8.52,0,0,1,2.7,3.387.544.544,0,0,1-.99.453Z" transform="translate(-410.584 -34.046)" fill="#666"/>
        <circle id="Ellipse_596" data-name="Ellipse 596" cx="1.029" cy="1.029" r="1.029" transform="translate(9.551 3.722)" fill="#666"/>
        <path id="Path_20588" data-name="Path 20588" d="M475.437,153.063a.544.544,0,1,1,.836.347A.545.545,0,0,1,475.437,153.063Z" transform="translate(-456.22 -144.072)" fill="#666"/>
        <path id="Path_20589" data-name="Path 20589" d="M203.846,62.289a1.029,1.029,0,0,0,1.029-1.029V56.891a1.029,1.029,0,1,0-2.058,0V61.26A1.029,1.029,0,0,0,203.846,62.289Z" transform="translate(-202.817 -54.325)" fill="#666"/>
      </g>
      <path id="Path_20590" data-name="Path 20590" d="M203.846,94.392a1.029,1.029,0,0,1-1.029-1.029v2.756a1.029,1.029,0,1,0,2.058,0V93.363A1.029,1.029,0,0,1,203.846,94.392Z" transform="translate(-188.528 -86.821)" fill="#535454"/>
      <path id="Path_20591" data-name="Path 20591" d="M81.3,152.5c-1.271.719-1.236,2.612-1.242,2.631a6.345,6.345,0,0,0,1.089.492v-.492c0-.335.127-1.365.689-1.683a.544.544,0,1,0-.536-.948Z" transform="translate(-74.418 -141.725)" fill="#ccc"/>
      <g id="Group_9825" data-name="Group 9825" transform="translate(1.488 2.362)">
        <path id="Path_20592" data-name="Path 20592" d="M34.679,38.262a.544.544,0,0,1-.269-.722,8.519,8.519,0,0,1,2.7-3.387.544.544,0,1,1,.65.874,5.672,5.672,0,0,0-.625.539A7.148,7.148,0,0,0,35.4,37.994.605.605,0,0,1,34.679,38.262Z" transform="translate(-33.428 -34.046)" fill="#666"/>
        <circle id="Ellipse_597" data-name="Ellipse 597" cx="1.029" cy="1.029" r="1.029" transform="translate(8.686 3.722)" fill="#666"/>
        <path id="Path_20593" data-name="Path 20593" d="M21.118,152.966a.545.545,0,1,1,.93.385C21.8,153.594,21.118,153.461,21.118,152.966Z" transform="translate(-21.118 -144.081)" fill="#666"/>
      </g>
      <path id="Path_20594" data-name="Path 20594" d="M21.073,450.107h-1.96a.544.544,0,1,1,0-1.089h1.96a.544.544,0,1,1,0,1.089Z" transform="translate(-17.261 -417.419)" fill="#ccc"/>
      <g id="Group_9826" data-name="Group 9826" transform="translate(19.95 0)">
        <path id="Path_20595" data-name="Path 20595" d="M291.646.6a7.531,7.531,0,0,0-1.1-.08,8.742,8.742,0,0,0-7.384,4.28V10.46a8.742,8.742,0,0,0,7.384,4.28,6.316,6.316,0,0,0,1.053-.087,7.059,7.059,0,0,1-5.9-6.98V7.582A7.058,7.058,0,0,1,291.646.6Z" transform="translate(-283.165 -0.515)" fill="#ddd"/>
        <path id="Path_20596" data-name="Path 20596" d="M417.722,175.749V155.7c0-3.114-3.433-2.63-3.433-2.63a3.061,3.061,0,0,1,1.242,2.63v0l0,0v20.047a.564.564,0,0,0,.564.564h2.189A.564.564,0,0,1,417.722,175.749Z" transform="translate(-405.051 -142.298)" fill="#ddd"/>
      </g>
      <path id="Path_20597" data-name="Path 20597" d="M281.006,62.289a1.029,1.029,0,0,1-1.029-1.029V56.891a1.029,1.029,0,1,1,2.058,0V61.26A1.029,1.029,0,0,1,281.006,62.289Z" transform="translate(-260.251 -51.963)" fill="#666"/>
      <path id="Path_20598" data-name="Path 20598" d="M281.006,94.392a1.029,1.029,0,0,1-1.029-1.029v2.756a1.029,1.029,0,1,0,2.058,0V93.363A1.029,1.029,0,0,1,281.006,94.392Z" transform="translate(-260.251 -86.821)" fill="#535454"/>
      <path id="Path_20599" data-name="Path 20599" d="M452.667,450.107h-1.96a.544.544,0,0,1,0-1.089h1.96a.544.544,0,0,1,0,1.089Z" transform="translate(-418.447 -417.419)" fill="#ccc"/>
    </g>
  </g>
</svg>
