<svg xmlns="http://www.w3.org/2000/svg" width="52" height="52" viewBox="0 0 52 52">
  <g id="Group_14187" data-name="Group 14187" transform="translate(-0.58 -0.801)">
    <rect id="Rectangle_1537" data-name="Rectangle 1537" width="52" height="52" rx="20" transform="translate(0.58 0.802)" fill="none"/>
    <g id="Group_14188" data-name="Group 14188" transform="translate(11185.58 21819.387)">
      <g id="_048-mac-mini" data-name="048-mac-mini" transform="translate(-11175 -21804)">
        <path id="Path_20706" data-name="Path 20706" d="M19.969.085C19.5-.009,3.637-.05,2.963.094h0a3.551,3.551,0,0,0-.509.148h0a3.656,3.656,0,0,0-1.161.7h0a3.63,3.63,0,0,0-1.21,2.7V19.187a3.629,3.629,0,0,0,1.21,2.7h0a3.655,3.655,0,0,0,.719.5h0a3.609,3.609,0,0,0,1.7.428H12.61c7.278,0,6.941.057,7.7-.158a3.67,3.67,0,0,0,2.465-2.581c.159-.623.113.532.113-16.435A3.644,3.644,0,0,0,19.969.085Z" transform="translate(-0.083 0)" fill="#efefef"/>
        <path id="Path_20707" data-name="Path 20707" d="M5.217,22.623h0a3.651,3.651,0,0,1-.719-.5h0a3.651,3.651,0,0,1-1.139-1.989c-.116-.578-.066-.06-.071-13.544-.008-3.051,0-2.925.021-3.1A3.6,3.6,0,0,1,4.5,1.176h0a3.653,3.653,0,0,1,1.161-.7h0A3.58,3.58,0,0,1,6.167.323h0a3.642,3.642,0,0,1,.754-.08,26.782,26.782,0,0,0-3.957.08h0a3.547,3.547,0,0,0-.509.148h0a3.656,3.656,0,0,0-1.161.7h0A3.635,3.635,0,0,0,.1,3.489c0-.005-.021-.754-.021,15.928a3.629,3.629,0,0,0,1.21,2.7h0a3.655,3.655,0,0,0,.719.5h0a3.609,3.609,0,0,0,1.7.428h3.2A3.61,3.61,0,0,1,5.217,22.623Z" transform="translate(-0.083 -0.23)" fill="#ddd"/>
        <path id="bolt_FILL0_wght400_GRAD0_opsz48" d="M15.28,13.3a.215.215,0,0,1-.172-.071.209.209,0,0,1-.041-.182l.375-2.6h-1.48a.17.17,0,0,1-.162-.1.2.2,0,0,1,0-.193l2.4-4.014a.271.271,0,0,1,.1-.091A.284.284,0,0,1,16.446,6a.215.215,0,0,1,.172.071.209.209,0,0,1,.041.182l-.375,2.595h1.46a.18.18,0,0,1,.167.1.188.188,0,0,1,.005.193l-2.392,4.024a.271.271,0,0,1-.1.091A.284.284,0,0,1,15.28,13.3Z" transform="translate(-2.828 1.906)" fill="#cbcbcb"/>
      </g>
      <path id="Rectangle_4543" data-name="Rectangle 4543" d="M6.994,0h0a0,0,0,0,1,0,0V8.311a2.331,2.331,0,0,1-2.331,2.331H0a0,0,0,0,1,0,0V6.994A6.994,6.994,0,0,1,6.994,0Z" transform="translate(-11175 -21804)" fill="#bababa" opacity="0.51"/>
      <g id="Group_14183" data-name="Group 14183" transform="translate(-11162.228 -21801.695)">
        <g id="_042-lightning" data-name="042-lightning" transform="translate(0 14.6) rotate(-90)">
          <path id="Path_20600" data-name="Path 20600" d="M3.018,0H.464A.466.466,0,0,0,0,.464v2.4H3.482V.464A.466.466,0,0,0,3.018,0Z" transform="translate(10.02 0)" fill="#efefef"/>
          <path id="Path_20601" data-name="Path 20601" d="M1.248.464A.466.466,0,0,1,1.712,0H.464A.466.466,0,0,0,0,.464v2.4H1.248Z" transform="translate(10.02 0)" fill="#ddd"/>
          <path id="Path_20602" data-name="Path 20602" d="M3.018,0H.464A.466.466,0,0,0,0,.464v1.3H3.482V.464A.466.466,0,0,0,3.018,0Z" transform="translate(10.02 0)" fill="#f9d698"/>
          <path id="Path_20603" data-name="Path 20603" d="M1.248.464A.466.466,0,0,1,1.712,0H.464A.466.466,0,0,0,0,.464v1.3H1.248Z" transform="translate(10.02 0)" fill="#efbb81"/>
          <path id="Path_20604" data-name="Path 20604" d="M4.024,0H.464A.466.466,0,0,0,0,.464V1.2H4.488V.464A.466.466,0,0,0,4.024,0Z" transform="translate(9.478 2.751)" fill="#ccc"/>
          <path id="Path_20605" data-name="Path 20605" d="M1.161.464A.466.466,0,0,1,1.625,0H.464A.466.466,0,0,0,0,.464V1.2H1.161Z" transform="translate(9.479 2.751)" fill="#bababa"/>
          <g id="Group_9828" data-name="Group 9828" transform="translate(10.547 0.545)">
            <path id="Path_20606" data-name="Path 20606" d="M.29.7A.29.29,0,0,1,0,.406V.29a.29.29,0,0,1,.58,0V.406A.29.29,0,0,1,.29.7Z" transform="translate(0 0)" fill="#f9e8cd"/>
            <path id="Path_20607" data-name="Path 20607" d="M.29.7A.29.29,0,0,1,0,.406V.29a.29.29,0,1,1,.58,0V.406A.29.29,0,0,1,.29.7Z" transform="translate(0.895 0)" fill="#f9e8cd"/>
            <path id="Path_20608" data-name="Path 20608" d="M.29.7A.29.29,0,0,1,0,.406V.29a.29.29,0,1,1,.58,0V.406A.29.29,0,0,1,.29.7Z" transform="translate(1.789 0)" fill="#f9e8cd"/>
          </g>
          <path id="Path_20609" data-name="Path 20609" d="M11.2,0V1.286a5.078,5.078,0,0,1-10.156,0V0H0V1.286A6.135,6.135,0,0,0,6.122,7.409a6.079,6.079,0,0,0,4.324-1.8,6.079,6.079,0,0,0,1.8-4.324V0Z" transform="translate(0 11.819)" fill="#efefef"/>
          <path id="Path_20612" data-name="Path 20612" d="M0,0V2.3a.414.414,0,0,0,.413.413H1.462A.414.414,0,0,0,1.875,2.3V0H0Z" transform="translate(10.785 9.343)" fill="#ccc"/>
          <path id="Path_20613" data-name="Path 20613" d="M.938,2.3V0H0V2.3a.414.414,0,0,0,.413.413h.938A.414.414,0,0,1,.938,2.3Z" transform="translate(10.785 9.343)" fill="#bababa"/>
          <path id="Path_20616" data-name="Path 20616" d="M5.121,0H.634A.635.635,0,0,0,0,.634V5.146a.635.635,0,0,0,.634.634H5.121a.635.635,0,0,0,.634-.634V.634A.635.635,0,0,0,5.121,0Z" transform="translate(8.845 3.834)" fill="#efefef"/>
          <path id="Path_20617" data-name="Path 20617" d="M1.156,5.146V.634A.635.635,0,0,1,1.789,0H.634A.635.635,0,0,0,0,.634V5.146a.635.635,0,0,0,.634.634H1.789A.635.635,0,0,1,1.156,5.146Z" transform="translate(8.845 3.834)" fill="#ddd"/>
        </g>
        <g id="Group_14182" data-name="Group 14182" transform="translate(10.041 13.204)">
          <path id="Path_42333" data-name="Path 42333" d="M0,2.3a.414.414,0,0,0,.413.413H1.462A.414.414,0,0,0,1.875,2.3V0H0Z" transform="translate(0 1.875) rotate(-90)" fill="#ccc"/>
          <path id="Path_42334" data-name="Path 42334" d="M.938,2.3V0H0V2.3a.414.414,0,0,0,.413.413h.938A.414.414,0,0,1,.938,2.3Z" transform="translate(0 1.875) rotate(-90)" fill="#bababa"/>
        </g>
      </g>
      <g id="Group_14184" data-name="Group 14184" transform="translate(-11164.357 -21783.324)">
        <circle id="Ellipse_916" data-name="Ellipse 916" cx="0.304" cy="0.304" r="0.304" transform="translate(0 0)" fill="#66bb6a"/>
        <circle id="Ellipse_917" data-name="Ellipse 917" cx="0.304" cy="0.304" r="0.304" transform="translate(1.824 0)" fill="#66bb6a"/>
        <circle id="Ellipse_918" data-name="Ellipse 918" cx="0.304" cy="0.304" r="0.304" transform="translate(3.649 0)" fill="#fff"/>
      </g>
    </g>
  </g>
</svg>
