<svg xmlns="http://www.w3.org/2000/svg" width="296" height="296" viewBox="0 0 296 296">
  <g id="Group_14335" data-name="Group 14335" transform="translate(-632 -520)">
    <rect id="Rectangle_873" data-name="Rectangle 873" width="296" height="296" transform="translate(632 520)" fill="none"/>
    <g id="Empty-cuate" transform="translate(604.644 493.667)">
      <g id="freepik--background-complete--inject-2" transform="translate(44.416 43.898)">
        <rect id="Rectangle_4902" data-name="Rectangle 4902" width="17.003" height="7.185" transform="translate(252.219 182.597) rotate(180)" fill="#ebebeb"/>
        <path id="Path_42869" data-name="Path 42869" d="M427.069,341.3l8.572-.18,4.225-.071c1.406-.032,2.806,0,4.206-.039l-.289.289V334.11l.321.321-8.5-.038c-2.832,0-5.67-.077-8.5-.109l.173-.173c0,1.175-.051,2.356-.083,3.551Zm0,0-.116-3.525c-.032-1.194-.077-2.408-.083-3.628v-.225h.18c2.832-.039,5.67-.1,8.5-.109l8.5-.039h.321v.321l-.039,7.185v.289h-.283c-1.432,0-2.87,0-4.3-.032l-4.276-.071Z" transform="translate(-182.363 -149.638)" fill="#ebebeb"/>
        <path id="Path_42870" data-name="Path 42870" d="M232.043,231.382l8.578-.18,4.219-.071c1.406-.032,2.806,0,4.206-.032l-.289.282-.032-7.185.321.321-8.5-.039c-2.832,0-5.67-.071-8.5-.109l.173-.173c0,1.175-.051,2.356-.083,3.557Zm0,0-.09-3.583c-.032-1.194-.071-2.408-.083-3.628V224h.18c2.832-.032,5.67-.1,8.5-.109l8.5-.039h.321v.321l-.032,7.185v.3h-.283c-1.432,0-2.87,0-4.3-.039l-4.283-.071Z" transform="translate(-112.57 -110.297)" fill="#ebebeb"/>
        <rect id="Rectangle_4903" data-name="Rectangle 4903" width="17.003" height="7.185" transform="translate(145.96 130.145) rotate(180)" fill="#ebebeb"/>
        <path id="Path_42871" data-name="Path 42871" d="M217.043,245.506l8.578-.18,4.225-.071c1.406-.032,2.8,0,4.2-.032l-.283.282-.039-7.185.321.321-8.5-.039c-2.832,0-5.663-.071-8.5-.109l.18-.173c0,1.175-.058,2.356-.083,3.557Zm0,0-.09-3.557c0-1.194-.071-2.408-.083-3.628v-.173h.173c2.838,0,5.67-.1,8.5-.109l8.5-.039h.327v.321l-.032,7.185v.289h-.289c-1.432,0-2.87,0-4.3-.039l-4.276-.071Z" transform="translate(-107.201 -115.361)" fill="#ebebeb"/>
        <rect id="Rectangle_4904" data-name="Rectangle 4904" width="17.003" height="7.185" transform="translate(162.654 39.142) rotate(180)" fill="#ebebeb"/>
        <path id="Path_42872" data-name="Path 42872" d="M46.243,341.3l8.578-.18,4.225-.071c1.4-.032,2.8,0,4.2-.039l-.283.289-.039-7.185.321.321-8.5-.038c-2.832,0-5.67-.077-8.5-.109l.173-.173c0,1.175-.051,2.356-.083,3.551Zm0,0-.09-3.525c-.032-1.194-.071-2.408-.083-3.628v-.225h.173c2.832-.039,5.67-.1,8.5-.109l8.5-.039h.321v7.795h-.289c-1.432,0-2.87,0-4.3-.032l-4.276-.071Z" transform="translate(-46.07 -149.638)" fill="#ebebeb"/>
        <path id="Path_42873" data-name="Path 42873" d="M61.024,58.016l8.578-.18,4.225-.071c1.406-.032,2.8,0,4.2-.039l-.283.289-.039-7.191.321.321-8.5-.039c-2.832,0-5.663-.077-8.5-.109l.18-.173c0,1.175-.058,2.356-.09,3.557Zm0,0-.071-3.557c0-1.194-.071-2.408-.083-3.628v-.173h.173c2.838-.032,5.67-.1,8.5-.109l8.5-.039h.327v.315l-.083,7.191V58.3H78c-1.432,0-2.87,0-4.3-.039L69.429,58.2Z" transform="translate(-51.367 -48.256)" fill="#ebebeb"/>
        <rect id="Rectangle_4905" data-name="Rectangle 4905" width="17.003" height="7.185" transform="translate(17.176 18.82) rotate(180)" fill="#ebebeb"/>
        <path id="Path_42874" data-name="Path 42874" d="M427.069,58.016l8.572-.18,4.225-.071c1.406-.032,2.806,0,4.206-.039l-.289.289V50.831l.321.321-8.5-.039c-2.832,0-5.67-.077-8.5-.109l.173-.173c0,1.175-.051,2.356-.083,3.557Zm0,0-.116-3.557c-.032-1.194-.077-2.408-.083-3.628v-.173h.18c2.832-.032,5.67-.1,8.5-.109l8.5-.039h.321v.315l-.019,7.191V58.3h-.283c-1.432,0-2.87,0-4.3-.039l-4.276-.071Z" transform="translate(-182.363 -48.256)" fill="#ebebeb"/>
        <rect id="Rectangle_4906" data-name="Rectangle 4906" width="46.198" height="51.155" transform="translate(32.907 214.952)" fill="#ebebeb"/>
        <rect id="Rectangle_4907" data-name="Rectangle 4907" width="23.854" height="51.162" transform="translate(32.913 266.114) rotate(180)" fill="#dbdbdb"/>
        <path id="Path_42875" data-name="Path 42875" d="M62.73,431.4q2.658-5.458,5.252-10.915l5.194-11.063,5.137-11.05q2.568-5.535,5.034-11.108-2.658,5.458-5.252,10.948L72.92,409.213l-5.137,11.05Q65.221,425.8,62.73,431.4Z" transform="translate(-52.033 -168.783)" fill="#ebebeb"/>
        <path id="Path_42876" data-name="Path 42876" d="M62.73,387.26q2.491,5.58,5.034,11.108l5.137,11.05,5.175,11.005q2.6,5.49,5.252,10.915-2.491-5.573-5.034-11.108l-5.137-11.05-5.175-11.005Q65.382,392.718,62.73,387.26Z" transform="translate(-52.033 -168.783)" fill="#ebebeb"/>
        <rect id="Rectangle_4908" data-name="Rectangle 4908" width="46.198" height="47.63" transform="translate(32.907 137.689)" fill="#ebebeb"/>
        <rect id="Rectangle_4909" data-name="Rectangle 4909" width="23.854" height="47.637" transform="translate(32.913 185.326) rotate(180)" fill="#dbdbdb"/>
        <path id="Path_42877" data-name="Path 42877" d="M127.19,272.5H128.9l.417-.854.591.854.8-1.753.758,1.753h3.146l.36-1.169.334,1.169h.642V261.44H127.19Z" transform="translate(-75.104 -123.751)" fill="#dbdbdb"/>
        <path id="Path_42878" data-name="Path 42878" d="M62.73,307.99q2.658-5.073,5.252-10.209l5.175-10.273,5.137-10.273q2.568-5.137,5.034-10.344-2.658,5.085-5.252,10.2L72.9,287.328,67.764,297.6Q65.221,302.8,62.73,307.99Z" transform="translate(-52.033 -125.701)" fill="#ebebeb"/>
        <path id="Path_42879" data-name="Path 42879" d="M62.73,266.93q2.491,5.182,5.034,10.318L72.9,287.522,78.076,297.8q2.6,5.137,5.252,10.2-2.491-5.188-5.034-10.344l-5.137-10.273-5.175-10.241Q65.382,272.015,62.73,266.93Z" transform="translate(-52.033 -125.715)" fill="#ebebeb"/>
        <rect id="Rectangle_4910" data-name="Rectangle 4910" width="5.13" height="5.13" transform="translate(41.081 182.366) rotate(180)" fill="#fff"/>
        <rect id="Rectangle_4911" data-name="Rectangle 4911" width="46.198" height="29.626" transform="translate(29.831 185.326)" fill="#dbdbdb"/>
        <rect id="Rectangle_4912" data-name="Rectangle 4912" width="23.854" height="29.626" transform="translate(29.831 214.952) rotate(180)" fill="#c7c7c7"/>
        <path id="Path_42880" data-name="Path 42880" d="M122.4,346.687h1.714l.417-.854.591.854.8-1.753.758,1.753h3.146l.353-1.169.34,1.169h.642V335.63H122.4Z" transform="translate(-73.389 -150.304)" fill="#fff"/>
        <path id="Path_42881" data-name="Path 42881" d="M57.94,364.447q2.652-3.21,5.252-6.479l5.175-6.511,5.137-6.543q2.53-3.275,5.028-6.575-2.645,3.21-5.252,6.479L68.1,351.336l-5.137,6.536Q60.431,361.166,57.94,364.447Z" transform="translate(-50.318 -151.274)" fill="#dbdbdb"/>
        <path id="Path_42882" data-name="Path 42882" d="M57.94,338.37q2.5,3.3,5.034,6.575l5.137,6.543L73.286,358q2.568,3.249,5.239,6.459-2.485-3.3-5.028-6.575l-5.137-6.536-5.175-6.517Q60.592,341.606,57.94,338.37Z" transform="translate(-50.318 -151.285)" fill="#dbdbdb"/>
        <rect id="Rectangle_4913" data-name="Rectangle 4913" width="46.198" height="44.754" transform="translate(209.706 221.36)" fill="#dbdbdb"/>
        <rect id="Rectangle_4914" data-name="Rectangle 4914" width="23.854" height="44.754" transform="translate(209.713 266.114) rotate(180)" fill="#c7c7c7"/>
        <path id="Path_42883" data-name="Path 42883" d="M402.54,402.807h1.714l.417-.854.591.854.8-1.753.758,1.753h3.146l.36-1.175.334,1.175h.642V391.75H402.54Z" transform="translate(-173.655 -170.39)" fill="#fff"/>
        <path id="Path_42884" data-name="Path 42884" d="M338.08,435.324q2.652-4.874,5.252-9.785l5.175-9.837,5.137-9.875q2.568-4.951,5.028-9.927-2.645,4.873-5.252,9.785l-5.175,9.83-5.1,9.882Q340.6,430.348,338.08,435.324Z" transform="translate(-150.584 -171.875)" fill="#dbdbdb"/>
        <path id="Path_42885" data-name="Path 42885" d="M338.08,395.9q2.5,4.976,5.034,9.927l5.1,9.875,5.175,9.837q2.6,4.912,5.252,9.785-2.485-4.983-5.028-9.927l-5.137-9.882-5.175-9.83Q340.732,400.773,338.08,395.9Z" transform="translate(-150.584 -171.875)" fill="#dbdbdb"/>
        <path id="Path_42886" data-name="Path 42886" d="M319.52,47V156.219h75.163V47Zm72.389,106.413H322.294V49.742h69.615Z" transform="translate(-143.941 -47)" fill="#ebebeb"/>
        <rect id="Rectangle_4915" data-name="Rectangle 4915" width="69.615" height="103.672" transform="translate(178.353 2.742)" fill="#fff"/>
        <rect id="Rectangle_4916" data-name="Rectangle 4916" width="69.615" height="2.774" transform="translate(247.968 59.175) rotate(180)" fill="#ebebeb"/>
        <rect id="Rectangle_4917" data-name="Rectangle 4917" width="85.379" height="7.962" transform="translate(255.847 117.143) rotate(180)" fill="#dbdbdb"/>
        <path id="Path_42887" data-name="Path 42887" d="M315.09,232.625l80.852,1.7v-4.88H315.09Z" transform="translate(-142.355 -112.297)" fill="#ebebeb"/>
        <path id="Path_42888" data-name="Path 42888" d="M323.84,51.27h69.615V122.5H323.84Zm67.047,2.568H326.408v66.09h64.479Z" transform="translate(-145.487 -48.528)" fill="#dbdbdb"/>
        <rect id="Rectangle_4918" data-name="Rectangle 4918" width="1.387" height="68.659" transform="translate(224.365 2.742)" fill="#dbdbdb"/>
        <rect id="Rectangle_4919" data-name="Rectangle 4919" width="1.387" height="68.659" transform="translate(200.569 2.742)" fill="#dbdbdb"/>
        <path id="Path_42889" data-name="Path 42889" d="M63.42,47V156.219h75.163V47Zm72.389,106.413H66.194V49.742h69.615Z" transform="translate(-52.28 -47)" fill="#ebebeb"/>
        <rect id="Rectangle_4920" data-name="Rectangle 4920" width="69.615" height="103.672" transform="translate(13.914 2.742)" fill="#fff"/>
        <rect id="Rectangle_4921" data-name="Rectangle 4921" width="69.615" height="2.774" transform="translate(83.529 59.175) rotate(180)" fill="#ebebeb"/>
        <rect id="Rectangle_4922" data-name="Rectangle 4922" width="85.379" height="7.962" transform="translate(91.408 117.143) rotate(180)" fill="#dbdbdb"/>
        <path id="Path_42890" data-name="Path 42890" d="M58.99,232.625l80.852,1.7v-4.88H58.99Z" transform="translate(-50.694 -112.297)" fill="#ebebeb"/>
        <path id="Path_42891" data-name="Path 42891" d="M67.74,51.27h69.615V122.5H67.74Zm67.047,2.568H70.308v66.09h64.479Z" transform="translate(-53.826 -48.528)" fill="#dbdbdb"/>
        <rect id="Rectangle_4923" data-name="Rectangle 4923" width="1.387" height="68.659" transform="translate(59.926 2.742)" fill="#dbdbdb"/>
        <rect id="Rectangle_4924" data-name="Rectangle 4924" width="1.387" height="68.659" transform="translate(36.13 2.742)" fill="#dbdbdb"/>
      </g>
      <g id="freepik--Boxes--inject-2" transform="translate(168.314 204.227)">
        <rect id="Rectangle_4925" data-name="Rectangle 4925" width="64.003" height="52.882" transform="translate(0 52.876)" fill="#377dff"/>
        <rect id="Rectangle_4926" data-name="Rectangle 4926" width="64.003" height="52.882" transform="translate(0 52.876)" opacity="0.1"/>
        <rect id="Rectangle_4927" data-name="Rectangle 4927" width="25.362" height="52.882" transform="translate(64.003 52.882)" fill="#377dff"/>
        <rect id="Rectangle_4928" data-name="Rectangle 4928" width="25.362" height="52.882" transform="translate(64.003 52.882)" opacity="0.2"/>
        <path id="Path_42892" data-name="Path 42892" d="M363.293,430.325q-2.812-5.637-5.58-11.314l-5.5-11.378-5.432-11.423q-2.7-5.721-5.349-11.481,2.825,5.644,5.586,11.314l5.5,11.378,5.432,11.423Q360.654,424.565,363.293,430.325Z" transform="translate(-275.68 -328.207)" fill="#377dff"/>
        <path id="Path_42893" data-name="Path 42893" d="M363.293,384.73q-2.645,5.779-5.349,11.481l-5.432,11.423-5.5,11.378q-2.767,5.67-5.586,11.314,2.652-5.779,5.349-11.481l5.432-11.423,5.5-11.371Q360.481,390.368,363.293,384.73Z" transform="translate(-275.68 -328.207)" fill="#377dff"/>
        <path id="Path_42894" data-name="Path 42894" d="M290.874,390.483H289.1l-.43-.88-.61.88-.828-1.811-.777,1.811H283.2l-.372-1.207-.347,1.207h-.661V379.06h9.053Z" transform="translate(-254.345 -326.178)" fill="#fff"/>
        <rect id="Rectangle_4929" data-name="Rectangle 4929" width="47.752" height="52.876" transform="translate(20.11)" fill="#377dff"/>
        <rect id="Rectangle_4930" data-name="Rectangle 4930" width="24.656" height="52.882" transform="translate(67.862)" fill="#377dff"/>
        <rect id="Rectangle_4931" data-name="Rectangle 4931" width="24.656" height="52.882" transform="translate(67.862)" opacity="0.1"/>
        <g id="Group_14336" data-name="Group 14336" transform="translate(23.513 3.615)" opacity="0.1">
          <path id="Path_42895" data-name="Path 42895" d="M316.5,347.95q-5.259-5.644-10.428-11.314l-10.293-11.4-10.139-11.423q-5.047-5.721-9.991-11.481,5.265,5.644,10.428,11.32l10.273,11.371,10.139,11.423Q311.556,342.191,316.5,347.95Z" transform="translate(-275.65 -302.33)"/>
          <path id="Path_42896" data-name="Path 42896" d="M316.51,302.37q-4.95,5.779-9.991,11.481l-10.139,11.4-10.273,11.378q-5.137,5.67-10.428,11.314,4.95-5.779,9.991-11.481l10.119-11.4,10.273-11.371Q311.245,308.008,316.51,302.37Z" transform="translate(-275.661 -302.344)"/>
        </g>
        <rect id="Rectangle_4932" data-name="Rectangle 4932" width="4.321" height="6.1" transform="translate(84.73 43.932)" fill="#fff"/>
      </g>
      <g id="freepik--Floor--inject-2" transform="translate(41.45 309.69)">
        <path id="Path_42897" data-name="Path 42897" d="M41.45,461.271l33.478-.161,33.478-.051,66.951-.109,66.951.109,33.478.051,33.479.161-33.479.154-33.478.058-66.951.109-66.951-.109-33.478-.058Z" transform="translate(-41.45 -460.95)" fill="#263238"/>
      </g>
      <g id="freepik--Fly--inject-2" transform="translate(174.504 126.791)">
        <path id="Path_42898" data-name="Path 42898" d="M289.119,177.192q-.539-.347-1.079-.674l.25-.417,1.092.687Z" transform="translate(-262.762 -176.1)" fill="#263238"/>
        <path id="Path_42899" data-name="Path 42899" d="M265.042,242.746h-.462v-.482a21.517,21.517,0,0,0,2.568-.1l.051.482C266.5,242.7,265.768,242.746,265.042,242.746Zm4.764-.527-.1-.469a17.23,17.23,0,0,0,2.453-.751l.173.449a17.721,17.721,0,0,1-2.523.758Zm4.9-1.926-.238-.417a15.937,15.937,0,0,0,2.1-1.464l.308.366a15.832,15.832,0,0,1-2.17,1.522Zm4.064-3.339-.353-.327A17.911,17.911,0,0,0,280,234.61l.4.27a18.2,18.2,0,0,1-1.631,2.087Zm2.941-4.36-.437-.205a14.872,14.872,0,0,0,.893-2.4l.462.128a15.2,15.2,0,0,1-.918,2.485Zm1.387-5.085-.482-.039c0-.347.045-.7.045-1.04a13.064,13.064,0,0,0-.083-1.425,13.113,13.113,0,0,1-1.49-.186l.083-.475a13.739,13.739,0,0,0,2.376.218h.167v.482h-.655a12.692,12.692,0,0,1,.077,1.4c.006.347-.013.713-.039,1.072Zm3.255-2.787-.109-.469a10.7,10.7,0,0,0,2.382-.873l.218.43a11.232,11.232,0,0,1-2.491.918Zm-7.821-.6a16.637,16.637,0,0,1-2.408-1.092l.238-.417a15.936,15.936,0,0,0,2.331,1.053Zm3.454-1.7a11.43,11.43,0,0,0-1.1-2.292l.4-.257a11.556,11.556,0,0,1,1.156,2.389Zm9.066-.1-.308-.366a13.013,13.013,0,0,0,1.779-1.83l.372.3a13.228,13.228,0,0,1-1.843,1.913Zm-17.105-.77-.135-.128a5.817,5.817,0,0,1-1.483-2.023l.449-.18a5.3,5.3,0,0,0,1.361,1.849l.128.116Zm20.438-3.281-.411-.25c.449-.745.867-1.509,1.233-2.26l.437.212C295.272,216.741,294.848,217.518,294.386,218.276Zm-15.1-.1a11.45,11.45,0,0,0-1.926-1.5l-.1-.064.25-.411.1.064a11.815,11.815,0,0,1,1.984,1.573Zm-6.376-1.239-.4-.27a2.934,2.934,0,0,1,2.427-1.233v.482a2.5,2.5,0,0,0-2.029,1.021Zm23.757-3.384-.449-.167a24.66,24.66,0,0,0,.764-2.459l.462.116a22.192,22.192,0,0,1-.771,2.511Zm1.284-5.092-.482-.064a22.808,22.808,0,0,0,.2-2.568h.482A23.764,23.764,0,0,1,297.949,208.465Zm-.372-5.2a24.889,24.889,0,0,0-.366-2.568l.475-.1a26.125,26.125,0,0,1,.372,2.6Zm-1-5.047c-.244-.809-.533-1.624-.867-2.434l.449-.18a24.723,24.723,0,0,1,.88,2.472Zm-1.926-4.784c-.385-.751-.815-1.509-1.284-2.254l.411-.25c.462.751.9,1.522,1.284,2.286Zm-2.7-4.4c-.494-.693-1.027-1.38-1.579-2.048l.372-.308c.559.674,1.1,1.374,1.6,2.074Zm-3.287-3.994c-.584-.642-1.2-1.239-1.83-1.83l.327-.353c.642.6,1.284,1.226,1.849,1.856Zm-3.769-3.551c-.642-.546-1.342-1.085-2.029-1.6l.283-.385c.7.514,1.393,1.059,2.055,1.618Z" transform="translate(-254.365 -177.317)" fill="#263238"/>
        <path id="Path_42900" data-name="Path 42900" d="M259.674,277.25a11.994,11.994,0,0,1-1.284-.231l.116-.469s.462.116,1.233.225Z" transform="translate(-252.15 -212.052)" fill="#263238"/>
        <path id="Path_42901" data-name="Path 42901" d="M250.293,275.083c-.3,2.568,4.944,4.007,5.342.642S250.595,272.495,250.293,275.083Z" transform="translate(-249.247 -210.842)" fill="#263238"/>
        <path id="Path_42902" data-name="Path 42902" d="M257.088,280.769c-.488.97-2.215,1.1-4-.141a11.974,11.974,0,0,1-3.018-3.384,11.9,11.9,0,0,1,4.495.392C256.677,278.349,257.6,279.787,257.088,280.769Z" transform="translate(-249.172 -212.278)" fill="#ebebeb"/>
        <path id="Path_42903" data-name="Path 42903" d="M250.1,277.28c1.014.456,2.01.95,3,1.438s1.978,1.008,2.947,1.547c-1.014-.456-2.01-.95-3-1.438S251.07,277.819,250.1,277.28Z" transform="translate(-249.183 -212.314)" fill="#263238"/>
        <path id="Path_42904" data-name="Path 42904" d="M256.709,281.766a8.89,8.89,0,0,1-.642-.841,8.5,8.5,0,0,1-.527-.905,8.9,8.9,0,0,1,.642.841,7.919,7.919,0,0,1,.527.905Z" transform="translate(-251.13 -213.294)" fill="#263238"/>
        <path id="Path_42905" data-name="Path 42905" d="M254,279.055a10.243,10.243,0,0,1,1.072-.218,10.407,10.407,0,0,1,1.1-.1A10.97,10.97,0,0,1,254,279.055Z" transform="translate(-250.578 -212.836)" fill="#263238"/>
        <path id="Path_42906" data-name="Path 42906" d="M252.872,279.367a2.409,2.409,0,0,1-.462-.937,2.408,2.408,0,0,1,.462.937Z" transform="translate(-250.009 -212.725)" fill="#263238"/>
        <path id="Path_42907" data-name="Path 42907" d="M258.061,271.645c-.25-1.059-1.894-1.586-3.917-.79a11.982,11.982,0,0,0-3.724,2.6,11.93,11.93,0,0,0,4.495.642C257.078,273.918,258.318,272.737,258.061,271.645Z" transform="translate(-249.297 -209.876)" fill="#ebebeb"/>
        <path id="Path_42908" data-name="Path 42908" d="M250.42,274.265c1.092-.206,2.177-.462,3.255-.713s2.157-.52,3.21-.822c-1.085.206-2.17.462-3.249.713S251.492,273.963,250.42,274.265Z" transform="translate(-249.297 -210.685)" fill="#263238"/>
        <path id="Path_42909" data-name="Path 42909" d="M257.9,271.48a9.093,9.093,0,0,0-.8.642,10.1,10.1,0,0,0-.726.758,7.316,7.316,0,0,0,.8-.642A8.995,8.995,0,0,0,257.9,271.48Z" transform="translate(-251.427 -210.238)" fill="#263238"/>
        <path id="Path_42910" data-name="Path 42910" d="M254.65,274.12a10.432,10.432,0,0,0,2.042.8A10.024,10.024,0,0,0,254.65,274.12Z" transform="translate(-250.811 -211.182)" fill="#263238"/>
        <path id="Path_42911" data-name="Path 42911" d="M253.628,273.28a2.237,2.237,0,0,0-.379.36,2.635,2.635,0,0,0-.289.443,2.274,2.274,0,0,0,.379-.366A1.844,1.844,0,0,0,253.628,273.28Z" transform="translate(-250.206 -210.882)" fill="#263238"/>
        <path id="Path_42912" data-name="Path 42912" d="M249.717,276.147a.937.937,0,1,1-1.04.828A.937.937,0,0,1,249.717,276.147Z" transform="translate(-248.671 -211.906)" fill="#455a64"/>
        <path id="Path_42913" data-name="Path 42913" d="M250.055,273.236a.941.941,0,1,1-1.043.825A.941.941,0,0,1,250.055,273.236Z" transform="translate(-248.791 -210.864)" fill="#455a64"/>
      </g>
      <g id="freepik--Character--inject-2" transform="translate(99.324 58.954)">
        <path id="Path_42914" data-name="Path 42914" d="M151.075,370.31s-13.689,27.411-13.7,27.411c-1.13,5.657-2.016,10.646-2.241,13.266a.1.1,0,0,0,0,.045,3.994,3.994,0,0,0,.071,1.83.1.1,0,0,0,0,.045c1.458,1.477,46.442,11.834,48.157,11.667s1.348-5-.077-6.793S166.408,404.3,166.408,404.3L179.79,376.84Z" transform="translate(-132.829 -177.773)" fill="#eb9481"/>
        <path id="Path_42915" data-name="Path 42915" d="M182.7,436.231c-1.689.167-46-10.2-47.45-11.667a.161.161,0,0,1,0-.045,3.968,3.968,0,0,1-.077-1.83.064.064,0,0,1,0-.045c.218-2.62,1.111-7.609,2.234-13.272l3.275-6.562,28.387,7.782-2.62,5.381s14.768,11.667,16.2,13.484S184.392,436.07,182.7,436.231Z" transform="translate(-132.841 -189.405)" fill="#ebebeb"/>
        <path id="Path_42916" data-name="Path 42916" d="M183.225,437.91c-1.714.128-46.808-11.365-48.247-12.893-.552-.571.738-7.243,2.53-15.256l.058-.25,29.177,7.1-.135.488S181.9,429.216,183.3,431.065,184.933,437.788,183.225,437.91Z" transform="translate(-132.752 -191.803)" fill="#263238"/>
        <path id="Path_42917" data-name="Path 42917" d="M184.5,444.4c-7.551-2.119-38.217-9.978-45.845-11.506-.064,0-.077.032,0,.051,7.442,2.267,38.172,9.875,45.832,11.558C184.63,444.557,184.656,444.441,184.5,444.4Z" transform="translate(-134.094 -200.171)" fill="#fff"/>
        <path id="Path_42918" data-name="Path 42918" d="M182.786,421.751c-2.851-1.323-6.626-1.8-9.452-.244-.109.058,0,.212.077.205a43.441,43.441,0,0,1,9.265.411.2.2,0,0,0,.109-.372Z" transform="translate(-146.51 -195.749)" fill="#fff"/>
        <path id="Path_42919" data-name="Path 42919" d="M185.626,424.634c-2.844-1.316-6.62-1.791-9.452-.244-.109.058,0,.212.083.212a43.015,43.015,0,0,1,9.265.411.2.2,0,0,0,.1-.379Z" transform="translate(-147.527 -196.782)" fill="#fff"/>
        <path id="Path_42920" data-name="Path 42920" d="M188.476,427.521c-2.851-1.323-6.626-1.8-9.452-.25-.109.064,0,.218.083.212a43.4,43.4,0,0,1,9.259.411.2.2,0,0,0,.109-.372Z" transform="translate(-148.547 -197.813)" fill="#fff"/>
        <path id="Path_42921" data-name="Path 42921" d="M183.154,444.226c.726.514-.141,3.178-.777,3.249s-49.749-12.681-50.526-13.086.289-3.32,1.284-3.21S183.154,444.226,183.154,444.226Z" transform="translate(-131.584 -199.557)" fill="#377dff"/>
        <path id="Path_42922" data-name="Path 42922" d="M145.967,419.927c-2.851-2.466-6.691,1.965-3.853,4.437S148.824,422.4,145.967,419.927Z" transform="translate(-134.996 -195.272)" fill="#fff"/>
        <path id="Path_42923" data-name="Path 42923" d="M143.92,321.261l32.9,8.3s30.666-55.342,29.979-69.41c-.944-19.4-23.725-79.067-23.725-79.067H155.8s18.1,64.5,18.351,75.349C174.259,262.105,143.92,321.261,143.92,321.261Z" transform="translate(-135.999 -110.045)" fill="#455a64"/>
        <path id="Path_42924" data-name="Path 42924" d="M181.1,397.625c-1.753-.7-17.413-5.22-29.1-7.705a.064.064,0,0,0,0,.122c3.679,1.284,26.9,7.4,29.074,7.705C181.131,397.766,181.182,397.676,181.1,397.625Z" transform="translate(-138.877 -184.791)" fill="#263238"/>
        <path id="Path_42925" data-name="Path 42925" d="M181.649,244.712q-3.255-13.657-6.935-27.205c-2.44-9.021-5.053-18.126-7.923-27.077-.347-1.1-.713-2.183-1.066-3.275a.137.137,0,1,0-.263.077c2.568,8.919,5.137,17.818,7.57,26.769s4.751,17.927,6.935,26.968c.546,2.234,1.079,4.463,1.6,6.7a59.933,59.933,0,0,1,1.4,6.979,18.074,18.074,0,0,1-.456,6.716,37.708,37.708,0,0,1-2.421,6.254q-5.9,12.81-11.8,25.626c-3.93,8.565-4.565,10.517-8.347,19.154-.469,1.072-.937,2.145-1.387,3.21,0,.071.071.135.109.058,4.3-8.463,4.963-10.5,8.989-19.115s8.026-17.336,12.02-26.011c1.8-3.917,3.91-7.911,4.18-12.29C184.128,253.682,182.69,249.1,181.649,244.712Z" transform="translate(-141.239 -112.184)" fill="#263238"/>
        <path id="Path_42926" data-name="Path 42926" d="M196.84,387.151l1.053,30.178c.173,5.779.424,10.832.8,13.432a.109.109,0,0,0,0,.045,4.045,4.045,0,0,0,.475,1.766l.039.039c1.753,1.111,47.913,1.085,49.524.539s.186-5.169-1.605-6.6-19.475-9.323-19.475-9.323l-1.342-30.146Z" transform="translate(-154.94 -183.775)" fill="#eb9481"/>
        <path id="Path_42927" data-name="Path 42927" d="M198.14,424.463s.218,6.177.218,6.2c.173,5.779.424,10.832.8,13.432a.109.109,0,0,0,0,.045,7.705,7.705,0,0,0,.475,1.766l.039.039c1.753,1.111,47.913,1.085,49.524.539s.186-5.169-1.605-6.6-19.475-9.323-19.475-9.323l-.135-6.286Z" transform="translate(-155.405 -197.086)" fill="#ebebeb"/>
        <path id="Path_42928" data-name="Path 42928" d="M249.275,449.292c-1.631.52-48.157-.2-49.916-1.355-.642-.43-.963-7.211-1.079-15.41v-.257l30.024.128v.514s17.69,8.238,19.481,9.708S250.912,448.791,249.275,449.292Z" transform="translate(-155.455 -199.949)" fill="#263238"/>
        <path id="Path_42929" data-name="Path 42929" d="M250.554,455.646c-7.84-.315-39.495-.841-47.271-.552-.064,0-.064.045,0,.045,7.763.482,39.424.758,47.271.642C250.714,455.742,250.721,455.646,250.554,455.646Z" transform="translate(-157.228 -208.088)" fill="#fff"/>
        <path id="Path_42930" data-name="Path 42930" d="M243.761,433.3c-3.076-.642-6.864-.212-9.253,1.926-.1.083,0,.212.128.186a43.808,43.808,0,0,1,9.1-1.753.193.193,0,0,0,.019-.36Z" transform="translate(-168.407 -200.219)" fill="#fff"/>
        <path id="Path_42931" data-name="Path 42931" d="M247.2,435.439c-3.082-.642-6.864-.205-9.253,1.958-.1.083,0,.212.122.18a43.437,43.437,0,0,1,9.111-1.747.2.2,0,0,0,.019-.392Z" transform="translate(-169.639 -200.986)" fill="#fff"/>
        <path id="Path_42932" data-name="Path 42932" d="M250.632,437.588c-3.076-.642-6.858-.212-9.252,1.926-.09.083,0,.212.128.186a43.886,43.886,0,0,1,9.1-1.753.193.193,0,0,0,.019-.36Z" transform="translate(-170.868 -201.754)" fill="#fff"/>
        <path id="Path_42933" data-name="Path 42933" d="M249.495,455.578c.828.334.6,3.127,0,3.339s-51.367-.8-52.2-1-.494-3.294.514-3.442S249.495,455.578,249.495,455.578Z" transform="translate(-154.937 -207.891)" fill="#377dff"/>
        <path id="Path_42934" data-name="Path 42934" d="M207.758,440.354c-3.345-1.74-6.055,3.461-2.7,5.2S211.11,442.094,207.758,440.354Z" transform="translate(-157.331 -202.717)" fill="#fff"/>
        <path id="Path_42935" data-name="Path 42935" d="M182.462,180.986c-.122.559-6.922,27.443-7.769,27.944-.963.571,24.708,35.109,27.751,52.067,1.926,10.845,6.421,74.059,6.421,74.059H176.131s-3.21-53.685-4.276-71.375c-.417-6.864-26.165-38.6-28.611-59.753-.771-6.665,4.019-22.967,4.019-22.967Z" transform="translate(-135.727 -110.002)" fill="#455a64"/>
        <path id="Path_42936" data-name="Path 42936" d="M191.434,357.848c-.385-8.893-.738-17.805-1.387-26.685-.366-5.034-1.085-9.907-1.586-14.922,0-.263-.238-.327-.231-.058.231,8.931.97,17.767,1.445,26.692s.931,11.005,1.438,19.9c.283,5.034.533,10.068.925,15.1a.064.064,0,0,0,.122,0C192.179,368.937,191.826,366.773,191.434,357.848Z" transform="translate(-151.858 -158.338)" fill="#263238"/>
        <path id="Path_42937" data-name="Path 42937" d="M219.971,277.045a47.512,47.512,0,0,0-1.361-6.954,35.572,35.572,0,0,0-2.652-6.389c-2.228-4.276-4.764-8.411-7.211-12.566s-5-8.4-7.577-12.546q-2.177-3.493-4.373-6.979c-1.49-2.344-3.063-4.642-4.6-6.954a.086.086,0,1,0-.148.09c2.5,4.2,4.983,8.4,7.487,12.6s4.97,8.411,7.435,12.623,4.861,8.3,7.185,12.508a43.941,43.941,0,0,1,2.947,6.241,38.313,38.313,0,0,1,1.65,6.864c.873,5.439,1.586,10.916,2.678,16.3a.064.064,0,0,0,.122,0C221.217,286.933,220.626,281.97,219.971,277.045Z" transform="translate(-153.222 -125.627)" fill="#263238"/>
        <path id="Path_42938" data-name="Path 42938" d="M225.328,411.959c-1.868-.244-16.129-.738-28.059-.225-.077,0-.071.116,0,.122,3.885.34,25.85.494,28.04.238C225.367,412.088,225.393,411.972,225.328,411.959Z" transform="translate(-155.073 -192.519)" fill="#263238"/>
        <path id="Path_42939" data-name="Path 42939" d="M193.516,221.647a61,61,0,0,0-9.631,4.495.109.109,0,0,0,.09.2c3.249-1.4,6.569-2.735,9.74-4.308a.217.217,0,1,0-.2-.385Z" transform="translate(-150.28 -124.556)" fill="#263238"/>
        <path id="Path_42940" data-name="Path 42940" d="M196.751,186.949c0-.109-.205-.135-.205,0A108.117,108.117,0,0,1,196,197.832c-.152,1.657-1.5,10.9-4.4,10.255-.488-.116-.732-.591-.809-1.329a11.354,11.354,0,0,1,.385-2.838c.321-1.926.578-3.853.745-5.837a52.934,52.934,0,0,0-.116-10.954.1.1,0,0,0-.186,0,100.768,100.768,0,0,1-.886,15.115c-.366,2.408-1.58,6.036.944,6.421s4.225-5.7,4.533-7.358A55.5,55.5,0,0,0,196.751,186.949Z" transform="translate(-152.532 -112.113)" fill="#263238"/>
        <path id="Path_42941" data-name="Path 42941" d="M192.032,220.113a15.017,15.017,0,0,0-.642,1.926,4.412,4.412,0,0,0-.27,1.573.109.109,0,0,0,.2.045,5.393,5.393,0,0,0,.674-1.535c.225-.6.456-1.181.642-1.785a.322.322,0,0,0-.6-.225Z" transform="translate(-152.892 -123.94)" fill="#263238"/>
        <path id="Path_42942" data-name="Path 42942" d="M177.384,277.473c-.308-4.572-.289-9.394-2.234-13.632a45.473,45.473,0,0,0-3.557-5.933q-1.99-3.043-3.93-6.119c-5.137-8.2-10.094-16.566-14.608-25.138a56.054,56.054,0,0,1-5.272-12.951,41.415,41.415,0,0,1-.6-14.614c.154-1.214.321-2.421.52-3.628a.071.071,0,0,0-.135-.032,47.842,47.842,0,0,0-1.072,14.126,39.411,39.411,0,0,0,3.769,13.028c1.99,4.308,4.36,8.456,6.7,12.585q3.615,6.421,7.442,12.656c2.568,4.148,5.214,8.212,7.866,12.3A23.391,23.391,0,0,1,175.4,266.4a34.293,34.293,0,0,1,1,7.14c.642,10.106,3.21,43.707,4.122,53.762q.164,1.926.347,3.853a.09.09,0,1,0,.173,0C180.658,321.064,178.045,287.547,177.384,277.473Z" transform="translate(-136.877 -115.165)" fill="#263238"/>
        <path id="Path_42943" data-name="Path 42943" d="M164.36,194.776c0-.071-.116-.045-.116,0-.1,2.806,0,5.708-1.1,8.347a11.43,11.43,0,0,1-5.207,5.419,39.739,39.739,0,0,1-4,1.958c-.1.045-.058.2.051.167a22.43,22.43,0,0,0,7.371-3.435,9.623,9.623,0,0,0,3.416-7.416A23.925,23.925,0,0,0,164.36,194.776Z" transform="translate(-139.565 -114.931)" fill="#263238"/>
        <path id="Path_42944" data-name="Path 42944" d="M192.147,120.038c3.673,11.275,13.593,30.48,17.137,32.8,3.14,2.048,17.914-.238,24.4-1.8,2.414-.584-3.018-18.987-5.593-18.312-3.088.809-12.29,2.883-12.957,2.369s-9.946-11.943-16.521-18.672C192.629,110.329,190.76,115.774,192.147,120.038Z" transform="translate(-153.104 -85.929)" fill="#eb9481"/>
        <path id="Path_42945" data-name="Path 42945" d="M252.071,158.53c1.239-.154,11.725-.642,16.534-3.255,2.568-1.393,9.124-6,8.469-7.66-.6-1.509-2.7-.687-2.7-.687s2.9-2.1,2.048-4.193-4.347-.52-4.347-.52,2.819-2.376,1.824-4.4-4.244.141-4.244.141,2.678-2.048,1.156-3.371c-1.836-1.592-6.35,2.748-9.4,3.763-.693.231-14.357,3.686-14.357,3.686Z" transform="translate(-172.91 -93.28)" fill="#eb9481"/>
        <path id="Path_42946" data-name="Path 42946" d="M276.585,139.9c-3.326,3.178-5.336,3.994-9.779,4.893-.083,0-.077.154,0,.141,4.43-.482,7.1-1.143,9.927-4.88C276.887,139.869,276.74,139.747,276.585,139.9Z" transform="translate(-179.96 -95.282)" fill="#263238"/>
        <path id="Path_42947" data-name="Path 42947" d="M279.978,146.515c-3.743,3-5.914,3.9-10.5,5.188-.064,0-.039.135.032.122,4.6-.886,7.243-1.605,10.588-5.1C280.254,146.572,280.151,146.38,279.978,146.515Z" transform="translate(-180.925 -97.657)" fill="#263238"/>
        <path id="Path_42948" data-name="Path 42948" d="M283.194,154.037c-3.853,2.645-6.17,3.743-10.781,4.418a.083.083,0,0,0,0,.167,15.42,15.42,0,0,0,10.832-4.456C283.477,153.985,283.432,153.876,283.194,154.037Z" transform="translate(-181.958 -100.338)" fill="#263238"/>
        <path id="Path_42949" data-name="Path 42949" d="M241.47,142.367a56.7,56.7,0,0,1,5.914-5.849c2.093-1.528,12.007-4.353,12.739-2.247.944,2.722-4.456,5.477-7.275,6.479,0,0,2.19,6.292-1.284,9.1S241.47,142.367,241.47,142.367Z" transform="translate(-170.913 -93.022)" fill="#eb9481"/>
        <path id="Path_42950" data-name="Path 42950" d="M265.874,136c-.931,3.1-4.719,4.18-7.384,5.355a.276.276,0,0,0-.1.43c.745,2.7,1,6.716-.886,8.989-.051.064.032.154.1.1,2.356-2.157,2.421-6.132,1.419-9.034,2.755-1.162,6.5-2.414,6.883-5.824C265.906,136,265.88,136,265.874,136Z" transform="translate(-176.645 -93.91)" fill="#263238"/>
        <path id="Path_42951" data-name="Path 42951" d="M231.98,154.1l-4.841-22.049-11.981,2.177c-4.726-5.413-14.171-16.232-17.978-19.481-4.495-3.814-7.435-.95-5.779,4.829,3.743,13.208,14.691,32.6,17.555,34.429C213.109,156.665,231.98,154.1,231.98,154.1Z" transform="translate(-152.825 -85.682)" fill="#377dff"/>
        <path id="Path_42952" data-name="Path 42952" d="M215.637,144.348a9.363,9.363,0,0,0,1.8.212,1.563,1.563,0,0,1,.681,2.787,4.61,4.61,0,0,1-4.135.353,3.015,3.015,0,0,1-2.093-3.21,1.605,1.605,0,0,1,2.568-.989A5.972,5.972,0,0,0,215.637,144.348Zm-3.313-5.246c-.462,2.183,2.915,4.058,4.642,2.9a1.162,1.162,0,0,0,.045-1.817c-.507-.411-.931-.475-1.38-.848a2.054,2.054,0,0,1-.411-.43,3.075,3.075,0,0,0-.957-.86,1.406,1.406,0,0,0-1.939,1.059Zm-5.387.116c-.693.905-.173,2.267.437,3.088a2.787,2.787,0,0,0,2.523,1.226.937.937,0,0,0,.475-1.644,2.979,2.979,0,0,1-.9-1.117c-.3-.681-.5-1.56-1.284-1.856A1.1,1.1,0,0,0,206.937,139.217Zm14.222,14.28c-.905,1.83,1.849,3.91,3.519,3.551.559-.122,1.1-.854.6-1.38-.4-.424-.873-.758-1.246-1.207-.456-.546-.706-1.246-1.419-1.522a1.13,1.13,0,0,0-1.458.559ZM195.3,131.056a2.452,2.452,0,0,0-.642-.777q.539,1.38,1.137,2.767A3.788,3.788,0,0,0,195.3,131.056Zm3.576-1.926a7.609,7.609,0,0,0-1.772-4.308c-.771-1-2.106-2.568-3.519-2.228a.732.732,0,0,0-.514.706c-.09,1.085,1.156,2.247,1.7,3.114.642,1.092,1.149,2.3,1.843,3.384a1.233,1.233,0,0,0,2.267-.674Zm-.417,6.9a1.175,1.175,0,0,0,1.079-.886,2.9,2.9,0,0,0-.1-1.5,2.511,2.511,0,0,0-.642-1.22.912.912,0,0,0-1.5.443,4.161,4.161,0,0,0,0,1.13v.488a3.013,3.013,0,0,0,.077.719,1.137,1.137,0,0,0,1.085.815Z" transform="translate(-153.588 -89.095)" fill="#030402" opacity="0.1"/>
        <path id="Path_42953" data-name="Path 42953" d="M246.115,164.461c-.552-1.284-1.926-6.986-2.228-8.4s-1.419-7.159-1.746-8.617c0-.083.09-.128.109-.051.347,1.438,1.894,7.1,2.234,8.514s1.618,7.108,1.708,8.54a.04.04,0,1,1-.077.019Z" transform="translate(-171.153 -97.972)" fill="#263238"/>
        <path id="Path_42954" data-name="Path 42954" d="M216.636,155.316c-3.371,0-6.331-.321-7.705-1.2-2.883-1.862-13.831-21.189-17.6-34.422-.95-3.313-.379-5.676,1.124-6.363Z" transform="translate(-152.801 -85.797)" opacity="0.1"/>
        <path id="Path_42955" data-name="Path 42955" d="M146.376,159.161c.083.122,40.15,5.259,40.58,4.886a29.05,29.05,0,0,0,.482-3.377s-3.673-43.624-5.573-46.185c-1.663-2.234-6.71-3.853-10.145-2.395-7.211,3.056-24.476,42.031-24.29,43.662A26.279,26.279,0,0,0,146.376,159.161Z" transform="translate(-136.876 -85.154)" fill="#377dff"/>
        <path id="Path_42956" data-name="Path 42956" d="M163.3,157.641a10.865,10.865,0,0,0,1.926.719c1.336.533,1.458,2.761,0,3.21a5.214,5.214,0,0,1-4.623-.738,3.374,3.374,0,0,1-1.419-4.058,1.811,1.811,0,0,1,3.069-.385C162.613,156.806,162.831,157.358,163.3,157.641Zm-2.2-6.633c-1.1,2.267,2.08,5.227,4.283,4.424a1.284,1.284,0,0,0,.539-1.978c-.437-.584-.886-.77-1.284-1.284a2.273,2.273,0,0,1-.327-.584,3.666,3.666,0,0,0-.815-1.194A1.566,1.566,0,0,0,161.1,151.008Zm-3.711-2.414c-1.2.449-1.509,2.068-1.419,3.21a3.14,3.14,0,0,0,1.682,2.678,1.053,1.053,0,0,0,1.432-1.284,3.275,3.275,0,0,1-.205-1.618c.109-.822.437-1.785-.109-2.523a1.239,1.239,0,0,0-1.381-.462Zm13.163,7.641a1.194,1.194,0,0,0-1.284,1.021,1.4,1.4,0,0,0,1,1.483,2.151,2.151,0,0,0,1.348,0,1,1,0,0,0,.52-.469,1.04,1.04,0,0,0,.148-.693,1.124,1.124,0,0,0-.88-.925.732.732,0,0,0-.141-.141,1.336,1.336,0,0,0-.706-.276Zm-9.843-15.494c-1.079,1.1-.642,3.615.591,4.463a1.143,1.143,0,0,0,1.824-.751,5.137,5.137,0,0,0,0-.764,3.543,3.543,0,0,1,0-.642,6.029,6.029,0,0,0,.058-1.663,1.413,1.413,0,0,0-2.472-.642Zm-6.967,15.975c-1.483,1.759.963,4.777,2.883,4.835.642,0,1.432-.642,1.034-1.348-.321-.565-.751-1.066-1.034-1.65-.347-.719-.43-1.56-1.137-2.048A1.284,1.284,0,0,0,153.746,156.716Zm35.424-.559a1.233,1.233,0,0,0-1.014.925,4.109,4.109,0,0,1-.764,1.926,8.789,8.789,0,0,0-1.541,1.56.944.944,0,0,0,.86,1.374,4.437,4.437,0,0,0,2.87-1.567c-.128-1.22-.257-2.652-.4-4.244Zm-3.21-5.3c-.36.873-.3,1.862-.6,2.774a21.731,21.731,0,0,1-.944,2.453c-.27.578.27,1.49.97,1.181a4.835,4.835,0,0,0,2.607-2.382c.488-1.008,1.027-2.7.559-3.775s-2.061-1.541-2.607-.276Zm-3.66,8.752a5.779,5.779,0,0,1-2,1.637,1.374,1.374,0,1,0,1.124,2.485,4.944,4.944,0,0,0,2.787-3.121,1.138,1.138,0,0,0-1.926-1.027Zm-5.869-31.462a1.419,1.419,0,0,0,1.669-1.04c.36-1.38-.873-2.8-1.849-3.66a3.994,3.994,0,0,0-3.718-1.2,1.124,1.124,0,0,0-.456,1.856c.6.745,1.425,1.284,2.061,2.016s1.162,1.817,2.279,2Zm4.925,5.451c.539-.777.122-1.926-.263-2.665a2.356,2.356,0,0,0-.918-.976,1.194,1.194,0,0,0-1.644.353,1.573,1.573,0,0,0-.077,1.169,3.211,3.211,0,0,0,.218.584v.109a3.91,3.91,0,0,0,.758,1.682,1.22,1.22,0,0,0,1.926-.257Zm3.313-4.6A7.609,7.609,0,0,0,182.9,124.7c-.77-1-2.106-2.568-3.519-2.228a.732.732,0,0,0-.514.706c-.09,1.085,1.156,2.247,1.7,3.114.642,1.092,1.149,2.3,1.843,3.384a1.233,1.233,0,0,0,2.234-.7ZM179.821,140a1.669,1.669,0,0,0,.713,0,1.464,1.464,0,0,0,.841-.674,2.369,2.369,0,0,0,.25-1.111,2.279,2.279,0,0,0-.289-1.04l-.212-.263-.283-.205a1.323,1.323,0,0,0-1.888.848,6.92,6.92,0,0,0-.225,1.143l.058.353a1.1,1.1,0,0,0,.257.475,1.374,1.374,0,0,0,.745.443Zm4.43-4.09a1.175,1.175,0,0,0,1.079-.886,2.9,2.9,0,0,0-.1-1.5,2.511,2.511,0,0,0-.642-1.22.912.912,0,0,0-1.5.443,4.161,4.161,0,0,0,0,1.13c0,.161,0,.321,0,.488a3.011,3.011,0,0,0,.077.719,1.136,1.136,0,0,0,1.053.79Z" transform="translate(-139.352 -88.943)" fill="#030402" opacity="0.1"/>
        <path id="Path_42957" data-name="Path 42957" d="M194.556,116.758c-2.446-.225-5.58-5.451-6.177-8.771-.039-.231.937-2.164,2.01-4.565.642-1.458,1.336-3.1,1.849-4.642l8.886,5.593a25.954,25.954,0,0,0-2.921,5.612,3.632,3.632,0,0,0-.141.642.874.874,0,0,1,0,.109C197.837,112.02,196.926,116.977,194.556,116.758Z" transform="translate(-151.911 -80.589)" fill="#eb9481"/>
        <path id="Path_42958" data-name="Path 42958" d="M200.384,110.851a.994.994,0,0,1,0,.109,7.064,7.064,0,0,1-1.008-.276c-5.561-2-4.578-9.3-4.186-11.314l2.215,1.4,6.068,3.853a25.754,25.754,0,0,0-2.915,5.612,3.512,3.512,0,0,0-.173.616Z" transform="translate(-154.233 -80.8)" fill="#263238"/>
        <path id="Path_42959" data-name="Path 42959" d="M194.994,80.448c-1.836,3.307-2.157,13.927-.122,16.746,2.941,4.084,8.848,5.676,12.591,1.926,3.628-3.673,3.795-17.523,1.432-20.194C205.4,74.959,197.7,75.562,194.994,80.448Z" transform="translate(-153.736 -72.55)" fill="#eb9481"/>
        <path id="Path_42960" data-name="Path 42960" d="M208.644,96.12a.059.059,0,0,0-.058.064c0,.732-.128,1.567-.8,1.785v.045C208.605,97.924,208.76,96.813,208.644,96.12Z" transform="translate(-158.859 -79.637)" fill="#263238"/>
        <path id="Path_42961" data-name="Path 42961" d="M207.6,94.9c-1.175-.128-1.348,2.222-.263,2.344S208.582,95.006,207.6,94.9Z" transform="translate(-158.437 -79.197)" fill="#263238"/>
        <path id="Path_42962" data-name="Path 42962" d="M215.624,96.51s.051.039.051.071c-.083.726-.051,1.573.584,1.862v.045C215.458,98.308,215.432,97.184,215.624,96.51Z" transform="translate(-161.627 -79.777)" fill="#263238"/>
        <path id="Path_42963" data-name="Path 42963" d="M216.358,95.41c1.175,0,1.079,2.356,0,2.356S215.369,95.4,216.358,95.41Z" transform="translate(-161.648 -79.383)" fill="#263238"/>
        <path id="Path_42964" data-name="Path 42964" d="M208.409,93.487c-.327.071-.642.077-.963.116a1.567,1.567,0,0,1-1-.071.5.5,0,0,1-.2-.578,1.239,1.239,0,0,1,1.066-.642,1.772,1.772,0,0,1,1.284.244.527.527,0,0,1-.186.931Z" transform="translate(-158.297 -78.263)" fill="#263238"/>
        <path id="Path_42965" data-name="Path 42965" d="M217.391,91.073a8.583,8.583,0,0,1-.918-.315,1.554,1.554,0,0,1-.873-.494.494.494,0,0,1,.071-.6,1.22,1.22,0,0,1,1.246-.141,1.83,1.83,0,0,1,1.053.77.533.533,0,0,1-.578.783Z" transform="translate(-161.628 -77.235)" fill="#263238"/>
        <path id="Path_42966" data-name="Path 42966" d="M208.13,100.145a6.177,6.177,0,0,1,2.877,0c.083,0,.167-.167.186-.244h0l.051-1.541c.2.116,1.2.642,1.2.36a36.643,36.643,0,0,0-.456-7.487.071.071,0,0,0-.135,0c-.1,2.318.193,4.629.122,6.96a4.263,4.263,0,0,0-1.13-.43,14.015,14.015,0,0,0,0,1.881,3.583,3.583,0,0,0-2.7.148C207.815,100,207.681,100.286,208.13,100.145Z" transform="translate(-158.878 -77.87)" fill="#263238"/>
        <path id="Path_42967" data-name="Path 42967" d="M205.276,107.513c.161.18.321.424.578.462a1.862,1.862,0,0,0,.79-.135s.045,0,0,.039a.957.957,0,0,1-.937.334.764.764,0,0,1-.526-.642C205.193,107.5,205.251,107.488,205.276,107.513Z" transform="translate(-157.925 -83.71)" fill="#263238"/>
        <path id="Path_42968" data-name="Path 42968" d="M198.1,77.5c-.1,1.65-.488,6.768-1.284,7.808s-2.478,3.461-3.332,3.853c.116-3.41.642-6.652,1.522-8.347A8.713,8.713,0,0,1,198.1,77.5Z" transform="translate(-153.737 -72.973)" fill="#263238" opacity="0.2"/>
        <path id="Path_42969" data-name="Path 42969" d="M211.379,84.461a3.75,3.75,0,0,1-3.512,1.027,3.808,3.808,0,0,1-2.78-2.5c0-.039-.071,0-.058,0a3.769,3.769,0,0,0,2.761,2.767,3.853,3.853,0,0,0,3.654-1.284C211.482,84.48,211.431,84.422,211.379,84.461Z" transform="translate(-157.87 -74.932)" fill="#263238"/>
        <path id="Path_42970" data-name="Path 42970" d="M206.684,70.463a5.894,5.894,0,0,0-5.137,2.376,4.219,4.219,0,0,0-.6,2.71h.083a4.6,4.6,0,0,1,2.472-4.013,5.971,5.971,0,0,1,5.3-.263,3.8,3.8,0,0,1,1.926,1.766c.039.083.205.045.173-.039A4.637,4.637,0,0,0,206.684,70.463Z" transform="translate(-156.398 -70.449)" fill="#263238"/>
        <path id="Path_42971" data-name="Path 42971" d="M225.388,77.2a4.752,4.752,0,0,0-1.849-2.69,6.6,6.6,0,0,0-4.289-.854c-.045,0-.039.064,0,.058a6.665,6.665,0,0,1,3.711.687,4.713,4.713,0,0,1,2.01,2.446,4.591,4.591,0,0,1-2.305,5.56,4.662,4.662,0,0,1-3.7.116c-.045,0-.083.045-.039.071a4.694,4.694,0,0,0,6.459-5.394Z" transform="translate(-162.838 -71.591)" fill="#263238"/>
        <path id="Path_42972" data-name="Path 42972" d="M194.42,80.871s-1.772-4.039.122-6.158c1.072-1.194,4.3-.783,4.3-.783a5.869,5.869,0,0,1,3.917-2.2c2.755-.43,5.894,1.432,5.894,1.432a5.413,5.413,0,0,1,4.989.276c3.21,2.177,2.408,7.268-1.1,8.655-2.466.982-5.535-1.368-5.535-1.368-.308,0-3.634,1.7-5.824-1.323,0,0-2.08,1.586-3.743.238a2.838,2.838,0,0,1-3.018,1.226Z" transform="translate(-153.804 -70.886)" fill="#263238"/>
        <path id="Path_42973" data-name="Path 42973" d="M194.1,94.629s-1.682-3.769-3.345-3.21-.854,5.682.79,6.684a1.824,1.824,0,0,0,2.568-.5Z" transform="translate(-152.432 -77.934)" fill="#eb9481"/>
        <path id="Path_42974" data-name="Path 42974" d="M191.68,93.71v.045a4.61,4.61,0,0,1,1.8,3.294,1.008,1.008,0,0,0-1.432-.552c-.039,0,0,.071,0,.071a1.117,1.117,0,0,1,1.143.642,5.047,5.047,0,0,1,.4,1.092c0,.122.244.1.231,0h0C194.146,96.644,193.343,94.2,191.68,93.71Z" transform="translate(-153.093 -78.774)" fill="#263238"/>
        <rect id="Rectangle_4933" data-name="Rectangle 4933" width="72.299" height="42.558" transform="translate(61.532 45.35) rotate(-17.03)" fill="#377dff"/>
        <rect id="Rectangle_4934" data-name="Rectangle 4934" width="72.299" height="42.558" transform="translate(61.532 45.35) rotate(-17.03)" opacity="0.2"/>
        <rect id="Rectangle_4935" data-name="Rectangle 4935" width="24.297" height="42.558" transform="translate(107.426 31.292) rotate(-17.03)" opacity="0.2"/>
        <path id="Path_42975" data-name="Path 42975" d="M328.533,111.33q-1.175,5.406-2.286,10.813l-2.19,10.838-2.119,10.883q-1.04,5.432-2.029,10.883,1.175-5.4,2.286-10.813l2.19-10.838,2.119-10.858Q327.544,116.781,328.533,111.33Z" transform="translate(-198.988 -85.081)" fill="#377dff"/>
        <path id="Path_42976" data-name="Path 42976" d="M333.583,151.991q-3.853-3.955-7.776-7.878l-7.833-7.808-7.885-7.75q-3.955-3.853-7.949-7.705,3.853,3.962,7.776,7.878l7.833,7.808,7.885,7.75Q329.6,148.177,333.583,151.991Z" transform="translate(-192.628 -88.488)" fill="#377dff"/>
        <rect id="Rectangle_4936" data-name="Rectangle 4936" width="0.398" height="5.593" transform="translate(75.191 50.477) rotate(162.97)" fill="#263238"/>
        <rect id="Rectangle_4937" data-name="Rectangle 4937" width="0.398" height="5.593" transform="translate(74.286 50.749) rotate(162.97)" fill="#263238"/>
        <rect id="Rectangle_4938" data-name="Rectangle 4938" width="0.398" height="5.593" transform="translate(73.374 51.04) rotate(162.97)" fill="#263238"/>
        <rect id="Rectangle_4939" data-name="Rectangle 4939" width="0.398" height="5.593" transform="translate(72.47 51.303) rotate(162.98)" fill="#263238"/>
        <rect id="Rectangle_4940" data-name="Rectangle 4940" width="0.398" height="5.593" transform="translate(71.559 51.585) rotate(162.97)" fill="#263238"/>
        <rect id="Rectangle_4941" data-name="Rectangle 4941" width="0.398" height="5.593" transform="translate(70.653 51.857) rotate(162.97)" fill="#263238"/>
        <rect id="Rectangle_4942" data-name="Rectangle 4942" width="0.398" height="5.593" transform="translate(69.737 52.156) rotate(162.97)" fill="#263238"/>
        <rect id="Rectangle_4943" data-name="Rectangle 4943" width="0.398" height="5.593" transform="translate(68.829 52.426) rotate(162.96)" fill="#263238"/>
        <rect id="Rectangle_4944" data-name="Rectangle 4944" width="0.398" height="5.593" transform="translate(67.914 52.714) rotate(162.97)" fill="#263238"/>
        <path id="Path_42977" data-name="Path 42977" d="M251.25,139.021l-1.58.039L253.092,138l-1.336.86.6,1.965c1.085-.186,1.817.719,2.369,2.517l-3.422,1.079c-.552-1.791-.456-2.954.546-3.409Z" transform="translate(-173.848 -94.626)" fill="#263238"/>
        <path id="Path_42978" data-name="Path 42978" d="M257.49,139.716l.893-.276-.8-2.62,2.286-.7.8,2.62.9-.276-1.207,3.352Z" transform="translate(-176.647 -93.953)" fill="#263238"/>
        <path id="Path_42979" data-name="Path 42979" d="M227.42,133.245l1.021,3.339,47.784-7.885-2.915-9.509Z" transform="translate(-165.884 -87.894)" opacity="0.1"/>
        <path id="Path_42980" data-name="Path 42980" d="M350.494,176.087,327.257,183.2l-8.957-4.61,23.237-7.121Z" transform="translate(-198.411 -106.606)" fill="#377dff"/>
        <path id="Path_42981" data-name="Path 42981" d="M350.494,176.087,327.257,183.2l-8.957-4.61,23.237-7.121Z" transform="translate(-198.411 -106.606)" opacity="0.2"/>
        <path id="Path_42982" data-name="Path 42982" d="M239.29,209.326l23.237-7.121,4.835-8.835-23.237,7.114Z" transform="translate(-170.133 -114.444)" fill="#377dff"/>
        <path id="Path_42983" data-name="Path 42983" d="M239.29,209.326l23.237-7.121,4.835-8.835-23.237,7.114Z" transform="translate(-170.133 -114.444)" opacity="0.1"/>
        <path id="Path_42984" data-name="Path 42984" d="M179.522,127.795c3.4,11.359,12.842,30.82,16.348,33.2,3.088,2.125,17.914.193,24.4-1.214,2.427-.52-2.568-19.051-5.137-18.441-3.108.738-12.36,2.568-13.015,2.061s-9.631-12.2-16.052-19.057C180.235,118.1,178.238,123.5,179.522,127.795Z" transform="translate(-148.608 -88.723)" fill="#eb9481"/>
        <path id="Path_42985" data-name="Path 42985" d="M233.11,148.558s4.912-5.535,8.392-7.647a26.133,26.133,0,0,1,12.033-3.435c4.565-.18,15.731,2.53,15.506,5.882-.2,3.037-11.468-.315-11.468-.315s12.052,1.522,11.14,5.137-13.773-1.027-13.773-1.027,12.347,1.836,10.845,5.426c-1.156,2.7-13.041-.841-13.041-.841s10.607,1.657,9.535,4.495c-1.181,3.127-12.36.546-12.36.546-3.923,6.729-8.553,8.347-11.975,9.073C237.091,166,233.11,148.558,233.11,148.558Z" transform="translate(-167.921 -94.435)" fill="#eb9481"/>
        <path id="Path_42986" data-name="Path 42986" d="M264.75,144.91c1.419.128,2.864.25,4.27.5s2.8.559,4.18.944a24.5,24.5,0,0,1,5.214,2,53.811,53.811,0,0,0-9.477-2.568c-1.406-.263-2.8-.578-4.2-.828C264.7,144.968,264.711,144.91,264.75,144.91Z" transform="translate(-179.232 -97.099)" fill="#263238"/>
        <path id="Path_42987" data-name="Path 42987" d="M263.184,152.8c1.8.238,3.615.411,5.413.732s3.461.783,5.227,1.226c.135.032.071.1-.064.064-1.785-.372-3.454-.578-5.239-.925s-3.557-.771-5.349-1.059C263.146,152.838,263.152,152.793,263.184,152.8Z" transform="translate(-178.675 -99.923)" fill="#263238"/>
        <path id="Path_42988" data-name="Path 42988" d="M260.605,159.32a40.6,40.6,0,0,1,8.193,1.759c.135.038.045.109-.1.077-2.71-.642-4.835-1.156-8.1-1.74C260.548,159.41,260.548,159.313,260.605,159.32Z" transform="translate(-177.746 -102.257)" fill="#263238"/>
        <path id="Path_42989" data-name="Path 42989" d="M218.511,162.816,214.2,140.651l-12.026,1.888c-4.6-5.522-13.779-16.566-17.529-19.9-4.4-3.923-7.41-1.124-5.9,4.687,3.454,13.285,13.933,32.907,16.771,34.833C199.583,164.916,218.511,162.816,218.511,162.816Z" transform="translate(-148.321 -88.474)" fill="#377dff"/>
        <path id="Path_42990" data-name="Path 42990" d="M211.677,144.181a9.362,9.362,0,0,0,1.8.212,1.563,1.563,0,0,1,.681,2.787,4.61,4.61,0,0,1-4.135.353,3.015,3.015,0,0,1-2.093-3.21,1.605,1.605,0,0,1,2.568-.989,5.972,5.972,0,0,0,1.175.848Zm-1.284-2.273a2.786,2.786,0,0,0,2.568-.077.963.963,0,0,0,.334-.385Zm-6.248.976a2.568,2.568,0,0,0,1.772.482.937.937,0,0,0,.809-.886Zm13.612,9.895a1.117,1.117,0,0,0-.578.552c-.539,1.085.212,2.254,1.284,2.954Zm-19.34,4.263a4.109,4.109,0,0,1-.764,1.926,8.789,8.789,0,0,0-1.528,1.586.944.944,0,0,0,.86,1.374,4.5,4.5,0,0,0,3.942-4.636,1.284,1.284,0,0,0-2.491-.25ZM196.2,150.82c-.36.873-.3,1.862-.6,2.774a21.731,21.731,0,0,1-.944,2.453c-.27.578.27,1.49.97,1.181a4.835,4.835,0,0,0,2.607-2.382c.488-1.008,1.027-2.7.559-3.775s-2.029-1.515-2.575-.25Zm-9.529-22.711a1.419,1.419,0,0,0,1.669-1.04c.36-1.38-.873-2.8-1.849-3.66a3.994,3.994,0,0,0-3.718-1.2,1.124,1.124,0,0,0-.456,1.856c.6.745,1.425,1.284,2.061,2.016s1.194,1.843,2.312,2.029Zm4.957,5.477c.539-.777.122-1.926-.263-2.665a2.356,2.356,0,0,0-.918-.976,1.194,1.194,0,0,0-1.644.353,1.573,1.573,0,0,0-.077,1.169,3.209,3.209,0,0,0,.218.584v.109a3.91,3.91,0,0,0,.758,1.682,1.22,1.22,0,0,0,1.926-.257Zm-1.535,6.421a1.67,1.67,0,0,0,.713,0,1.464,1.464,0,0,0,.841-.674,2.369,2.369,0,0,0,.25-1.111,2.279,2.279,0,0,0-.289-1.04l-.212-.263-.283-.205a1.323,1.323,0,0,0-1.888.848,6.92,6.92,0,0,0-.225,1.143l.058.353a1.1,1.1,0,0,0,.257.475,1.374,1.374,0,0,0,.745.417Zm5.387-6.517h0l-1.284-1.445a.841.841,0,0,0-.918.642,4.162,4.162,0,0,0,0,1.13v.488a3.012,3.012,0,0,0,.077.719,1.136,1.136,0,0,0,1.136.822,1.175,1.175,0,0,0,1.079-.886A2.915,2.915,0,0,0,195.484,133.49Z" transform="translate(-149.628 -88.929)" fill="#030402" opacity="0.1"/>
        <path id="Path_42991" data-name="Path 42991" d="M232.454,173.469c-.52-1.316-1.74-7.031-2.029-8.463s-1.246-7.185-1.535-8.655c0-.077.09-.128.109-.045.308,1.445,1.727,7.14,2.029,8.565s1.451,7.14,1.5,8.578a.04.04,0,0,1-.077.019Z" transform="translate(-166.411 -101.163)" fill="#263238"/>
        <path id="Path_42992" data-name="Path 42992" d="M211.721,170.6c-1.971.116-3.942.161-5.914.148a48.009,48.009,0,0,1-5.92-.34,9.476,9.476,0,0,1-2.915-.771,8.694,8.694,0,0,1-2.132-2.151,43.766,43.766,0,0,1-3.153-5.04c-1.926-3.461-3.583-7.063-5.2-10.646s-3.088-7.268-4.437-10.98c1.637,3.589,3.255,7.185,4.938,10.749s3.384,7.114,5.22,10.588a53.083,53.083,0,0,0,3.031,5.034,8.2,8.2,0,0,0,1.926,2.1,9.112,9.112,0,0,0,2.767.777,78.331,78.331,0,0,0,11.789.533Z" transform="translate(-149.646 -95.636)" fill="#263238"/>
        <path id="Path_42993" data-name="Path 42993" d="M183.327,144.655a6.088,6.088,0,0,1-.713-.867,3.506,3.506,0,0,1-.494-1.008,5.329,5.329,0,0,0,.315.462l.315.456A9.45,9.45,0,0,1,183.327,144.655Z" transform="translate(-149.671 -96.337)" fill="#263238"/>
        <path id="Path_42994" data-name="Path 42994" d="M199.79,136.43c1.624,1.631,3.082,3.422,4.591,5.137s2.954,3.525,4.495,5.233l.571.642c.1.1.2.205.3.3s.1.083.141.122h.071a14.62,14.62,0,0,0,1.657-.18l3.416-.507c2.273-.334,4.552-.681,6.832-.989h0l.09.565-.135-.559h.032c-2.254.482-4.495.912-6.78,1.329-1.136.205-2.273.385-3.416.559a15.882,15.882,0,0,1-1.766.205.553.553,0,0,1-.141,0,.526.526,0,0,1-.173-.09,2.4,2.4,0,0,1-.186-.161l-.315-.308c-.205-.212-.4-.424-.591-.642-1.509-1.753-2.973-3.525-4.411-5.323l-2.151-2.7C201.209,138.215,200.567,137.29,199.79,136.43Z" transform="translate(-155.995 -94.064)" fill="#263238"/>
        <path id="Path_42995" data-name="Path 42995" d="M201.1,136.73a6.452,6.452,0,0,1,.642.95,3.6,3.6,0,0,1,.379,1.059c-.077-.173-.173-.327-.263-.494l-.263-.494A10.514,10.514,0,0,1,201.1,136.73Z" transform="translate(-156.464 -94.172)" fill="#263238"/>
      </g>
      <g id="freepik--Plant--inject-2" transform="translate(41.45 194.422)">
        <path id="Path_42996" data-name="Path 42996" d="M81.086,356.419a168.761,168.761,0,0,1,.25-18.023,229.109,229.109,0,0,1,5.644-36.7c1.573-6.793,3.512-13.484,5.535-20.149.058-.2.379-.141.327.064-6.248,23.526-11.378,47.81-11.025,72.261.1,6.845.893,13.567,1.541,20.367,0,.186-.283.257-.321.071A102.845,102.845,0,0,1,81.086,356.419Z" transform="translate(-55.589 -281.428)" fill="#ffa726"/>
        <path id="Path_42997" data-name="Path 42997" d="M93.316,281.67s9.464,24.027,7.345,29.671-6.492,6.851-6.492,6.851,5.779,8.27,1.746,16.052-13.034,7.384-13.638,16.181C82.278,350.4,81.777,313.633,93.316,281.67Z" transform="translate(-56.062 -281.515)" fill="#ffa726"/>
        <path id="Path_42998" data-name="Path 42998" d="M83.654,338.042a.18.18,0,0,1,0-.128,220.235,220.235,0,0,1,9.188-48.33c0-.045.09-.032.077,0q-2.812,10.537-4.97,21.189a10.453,10.453,0,0,1,4.495-2.517s.045,0,0,.045a12.02,12.02,0,0,0-4.662,3.121q-.411,2.08-.8,4.18c2.112-2.363,5.047-3.538,7.981-4.655.039,0,.064.051,0,.064-3.056,1.246-6.106,2.851-8.174,5.483q-1.092,5.978-1.926,12a11.4,11.4,0,0,1,5.644-3.21c.064,0,.1.083,0,.1a11.936,11.936,0,0,0-5.721,3.666h-.039q-.283,2.119-.533,4.244a14.357,14.357,0,0,1,4.077-2.363c.039,0,.058.045,0,.058a13.746,13.746,0,0,0-3.923,2.626h-.051c-.154,1.342-.315,2.69-.449,4.039a19.262,19.262,0,0,1,8.026-5.734.052.052,0,0,1,.039.1,20.919,20.919,0,0,0-7.911,6.087.173.173,0,0,1-.2.064c-.205,2.068-.392,4.141-.539,6.215H83.23C83.333,342.286,83.48,340.161,83.654,338.042Z" transform="translate(-56.404 -284.337)" fill="#263238"/>
        <path id="Path_42999" data-name="Path 42999" d="M95.715,314.012a11.8,11.8,0,0,1,5.689-1.772.035.035,0,1,1,0,.071,22.379,22.379,0,0,0-5.625,1.836.077.077,0,0,1-.064-.135Z" transform="translate(-60.862 -292.456)" fill="#263238"/>
        <path id="Path_43000" data-name="Path 43000" d="M93.926,353.8a11.957,11.957,0,0,1,4.27-1.458.039.039,0,1,1,0,.077,16.211,16.211,0,0,0-4.231,1.483C93.919,353.926,93.868,353.83,93.926,353.8Z" transform="translate(-60.222 -306.809)" fill="#263238"/>
        <path id="Path_43001" data-name="Path 43001" d="M42.209,328.465a64.341,64.341,0,0,1,10.954,9.58,39.276,39.276,0,0,1,7.705,13.028,97.6,97.6,0,0,1,5.721,31.161A75.42,75.42,0,0,1,64.9,399.756a.167.167,0,0,1-.327-.058,98.239,98.239,0,0,0-.154-30.634c-1.631-9.94-4.18-20.752-10.5-28.83-3.474-4.379-7.763-7.853-11.975-11.442C41.7,328.613,41.978,328.3,42.209,328.465Z" transform="translate(-41.592 -298.247)" fill="#ffa726"/>
        <path id="Path_43002" data-name="Path 43002" d="M65.034,374.823a58.835,58.835,0,0,0-7.981-10.209c-4.739-4.732-8.726-8.1-9.342-11.23s4.745-5.432,4.745-5.432-6.556,1.175-8.347-1.579S41.45,327.7,41.45,327.7s11.911,8.54,17.478,20.438S65.034,374.823,65.034,374.823Z" transform="translate(-41.45 -297.99)" fill="#ffa726"/>
        <path id="Path_43003" data-name="Path 43003" d="M47.79,334.026c5.021,4.925,10.068,10.171,13.022,16.643a64.974,64.974,0,0,1,2.633,6.864h0c.154.469.308.944.449,1.413a.122.122,0,0,1,0,.077,135.691,135.691,0,0,1,3.39,14.717c0,.032-.045.051-.051,0-.514-2.485-1.079-4.989-1.714-7.493h-.071a10.383,10.383,0,0,0-3.1-.8c-.071,0-.064-.128,0-.128a11.8,11.8,0,0,1,3.095.565c-.578-2.254-1.207-4.495-1.926-6.723a33.592,33.592,0,0,0-7.063-.925V358.2a26.839,26.839,0,0,1,6.947.591c-.122-.379-.25-.758-.372-1.137a36.767,36.767,0,0,0-4.707-.8c-.032,0,0-.051,0-.051a23.114,23.114,0,0,1,4.61.559q-.976-2.883-2.132-5.65a34.221,34.221,0,0,0-2.247-4.373,28.594,28.594,0,0,0-3.814-.681c-.039,0-.032-.058,0-.064a10.313,10.313,0,0,1,3.57.353q-.944-1.522-1.99-2.966h0a20.574,20.574,0,0,0-8.122-.642.045.045,0,0,1,0-.083,17.129,17.129,0,0,1,7.776.218c-.283-.372-.571-.745-.867-1.111a17.5,17.5,0,0,0-5-.79v-.051a12.937,12.937,0,0,1,4.655.411c-2.209-2.748-4.649-5.323-7.063-7.872C47.584,333.987,47.674,333.9,47.79,334.026Z" transform="translate(-43.668 -300.231)" fill="#263238"/>
        <path id="Path_43004" data-name="Path 43004" d="M48.059,350.939a10.847,10.847,0,0,1,2.369-.077c.1,0,.09.167,0,.167-.783,0-1.567-.038-2.356,0C48.008,351.016,48.008,350.939,48.059,350.939Z" transform="translate(-43.802 -306.268)" fill="#263238"/>
        <path id="Path_43005" data-name="Path 43005" d="M61.4,375a10.646,10.646,0,0,1,3.679.738s0,.058,0,.051c-1.214-.289-2.44-.411-3.666-.61C61.287,375.18,61.294,375,61.4,375Z" transform="translate(-48.561 -314.919)" fill="#263238"/>
        <path id="Path_43006" data-name="Path 43006" d="M65.416,366.71a7.961,7.961,0,0,1,1.56.141c.051,0,.045.1,0,.1a7.9,7.9,0,0,1-1.56-.077.083.083,0,0,1,0-.161Z" transform="translate(-50.006 -311.952)" fill="#263238"/>
        <path id="Path_43007" data-name="Path 43007" d="M113.2,354.813a54.192,54.192,0,0,0-11.076,5.214,33.28,33.28,0,0,0-9.214,8.771,82.188,82.188,0,0,0-11.834,23.9,63.908,63.908,0,0,0-2.684,14.569.141.141,0,0,0,.283,0,82.688,82.688,0,0,1,7.172-24.727c3.615-7.667,8.18-15.827,15.16-20.9,3.8-2.767,8.071-4.572,12.328-6.485C113.583,355.051,113.454,354.736,113.2,354.813Z" transform="translate(-54.671 -307.689)" fill="#ffa726"/>
        <path id="Path_43008" data-name="Path 43008" d="M86.88,387.068a49.4,49.4,0,0,1,8.816-6.421c4.931-2.735,8.931-4.54,10.158-6.928s-2.568-5.5-2.568-5.5,5.028,2.466,7.114.642,6.466-14.5,6.466-14.5S105.257,358.5,98,366.868,86.88,387.068,86.88,387.068Z" transform="translate(-57.71 -307.531)" fill="#ffa726"/>
        <path id="Path_43009" data-name="Path 43009" d="M87.81,386.016c5.779-10.915,13.561-20.765,24.181-27.276h0a53.744,53.744,0,0,0-7.769,6.087,12.284,12.284,0,0,1,6.241,1.284c.045,0,0,.077,0,.064a17.131,17.131,0,0,0-6.421-1.085.161.161,0,0,1-.077,0c-.372.353-.745.719-1.117,1.085a19.494,19.494,0,0,1,3.339.443v.045a17.115,17.115,0,0,0-3.525-.289,71.188,71.188,0,0,0-5.477,6.222,5.5,5.5,0,0,1,2.331.167.045.045,0,1,1,0,.09,12.438,12.438,0,0,0-2.491-.039c-.315.4-.642.809-.95,1.22a22.305,22.305,0,0,1,7.063.687v.051A28.187,28.187,0,0,0,95.9,374.3c-.3.392-.578.8-.867,1.194a15.161,15.161,0,0,1,4.193.482c.058,0,.039.1,0,.084a15.944,15.944,0,0,0-4.347-.34q-1.868,2.568-3.6,5.265a3.891,3.891,0,0,1,1.843.109v.051a7.987,7.987,0,0,0-2,.09q-1.554,2.414-2.992,4.873C87.926,386.266,87.733,386.164,87.81,386.016Z" transform="translate(-58.037 -309.099)" fill="#263238"/>
        <path id="Path_43010" data-name="Path 43010" d="M101.861,387.128a8.938,8.938,0,0,1,3.371.411v.051a26.686,26.686,0,0,0-3.358-.347.058.058,0,0,1-.013-.116Z" transform="translate(-63.053 -319.252)" fill="#263238"/>
        <path id="Path_43011" data-name="Path 43011" d="M117.647,366.431a6.009,6.009,0,0,1,1.554.09.051.051,0,0,1,0,.1c-.507-.058-1.014-.039-1.528-.051a.071.071,0,0,1-.026-.135Z" transform="translate(-68.707 -311.846)" fill="#263238"/>
        <path id="Path_43012" data-name="Path 43012" d="M63.55,442.273H89.76l-3.737-27.385-.957-7.018H68.244l-.957,7.018Z" transform="translate(-49.36 -326.683)" fill="#455a64"/>
        <path id="Path_43013" data-name="Path 43013" d="M69.37,414.888H88.106l-.957-7.018H70.327Z" transform="translate(-51.443 -326.683)" fill="#263238"/>
        <rect id="Rectangle_4945" data-name="Rectangle 4945" width="21.645" height="5.946" transform="translate(38.114 84.692) rotate(180)" fill="#455a64"/>
      </g>
      <g id="freepik--speech-bubble--inject-2" transform="translate(165.052 38.332)">
        <path id="Path_43014" data-name="Path 43014" d="M264.414,52.815a14.261,14.261,0,0,1-22.762,11.448l-6.992,1.785,2.909-6.5a14.267,14.267,0,1,1,26.846-6.729Z" transform="translate(-234.204 -38.408)" fill="#fff"/>
        <path id="Path_43015" data-name="Path 43015" d="M264.16,52.733a14.421,14.421,0,0,1-2.106,7.5,16.5,16.5,0,0,1-1.1,1.644,15.947,15.947,0,0,1-1.368,1.425,13.966,13.966,0,0,1-3.21,2.267,14.125,14.125,0,0,1-3.724,1.284,13.555,13.555,0,0,1-1.971.244,12.039,12.039,0,0,1-1.984,0,14.466,14.466,0,0,1-7.4-2.729l.193.039-6.973,1.836-.565.148.238-.539,2.883-6.517v.27a14.428,14.428,0,0,1-.449-12.758,14.385,14.385,0,0,1,22.1-5.394,14.351,14.351,0,0,1,5.439,11.282Zm0,0a14.1,14.1,0,0,0-17.69-13.651,13.953,13.953,0,0,0-5.605,2.928,14.71,14.71,0,0,0-3.75,5.1,14.01,14.01,0,0,0-1.169,6.183,14.312,14.312,0,0,0,1.644,6.016l.071.135-.064.135-2.934,6.5-.327-.385,7.005-1.734h.109l.083.064a14.03,14.03,0,0,0,7.146,2.793,13.123,13.123,0,0,0,1.926,0,13.7,13.7,0,0,0,5.644-1.432,13.291,13.291,0,0,0,3.21-2.2,15.714,15.714,0,0,0,1.368-1.406,17.2,17.2,0,0,0,1.136-1.6,14.37,14.37,0,0,0,2.2-7.448Z" transform="translate(-233.95 -38.332)" fill="#263238"/>
        <path id="Path_43016" data-name="Path 43016" d="M257.137,57.583v1.573a1.156,1.156,0,0,1-1.188,1.188,1.181,1.181,0,0,1-1.181-1.188V56.55a1.22,1.22,0,0,1,1.181-1.188,2.71,2.71,0,1,0,0-5.413,2.671,2.671,0,0,0-2.318,1.329,1.2,1.2,0,0,1-1.644.437,1.181,1.181,0,0,1-.411-1.624,5.079,5.079,0,1,1,5.56,7.493Zm0,5.3v.437a1.156,1.156,0,0,1-1.188,1.181,1.181,1.181,0,0,1-1.181-1.181v-.437a1.2,1.2,0,0,1,1.181-1.188,1.175,1.175,0,0,1,1.188,1.188Z" transform="translate(-240.198 -41.636)" fill="#377dff"/>
      </g>
    </g>
  </g>
</svg>
