<svg xmlns="http://www.w3.org/2000/svg" width="23" height="24" viewBox="0 0 23 24">
  <g id="Group_11130" data-name="Group 11130" transform="translate(-0.058)">
    <rect id="Rectangle_2471" data-name="Rectangle 2471" width="23" height="24" transform="translate(0.058)" fill="none" opacity="0"/>
    <path id="Path_20893" data-name="Path 20893" d="M16.456,14.942a5.58,5.58,0,0,1,.878.06.611.611,0,0,1,.525.526,5.568,5.568,0,0,1,.057.879v.019a5.584,5.584,0,0,1-.057.879.613.613,0,0,1-.525.526,5.524,5.524,0,0,1-.878.059h-.028a5.524,5.524,0,0,1-.878-.059.633.633,0,0,1-.351-.175.641.641,0,0,1-.174-.351,5.68,5.68,0,0,1-.056-.879v-.019a5.664,5.664,0,0,1,.056-.879A.613.613,0,0,1,15.55,15a5.58,5.58,0,0,1,.878-.06h.028m0-1.957h-.031a7.428,7.428,0,0,0-1.224.09,2.561,2.561,0,0,0-1.383.711,2.6,2.6,0,0,0-.728,1.432,7.379,7.379,0,0,0-.081,1.188,7.528,7.528,0,0,0,.086,1.238,2.565,2.565,0,0,0,.706,1.384,2.607,2.607,0,0,0,1.43.733,7.536,7.536,0,0,0,1.187.084,7.648,7.648,0,0,0,1.259-.09,2.559,2.559,0,0,0,1.383-.71,2.608,2.608,0,0,0,.728-1.432,7.514,7.514,0,0,0,.081-1.188,7.466,7.466,0,0,0-.087-1.238A2.56,2.56,0,0,0,19.08,13.8a2.6,2.6,0,0,0-1.431-.733,7.329,7.329,0,0,0-1.187-.085Z" transform="translate(-0.775 -0.227)" fill="#377dff"/>
    <path id="Path_20894" data-name="Path 20894" d="M7.433,14.942a5.587,5.587,0,0,1,.879.06.611.611,0,0,1,.524.526,5.568,5.568,0,0,1,.057.879v.019a5.584,5.584,0,0,1-.057.879.614.614,0,0,1-.524.526,5.531,5.531,0,0,1-.879.059H7.406a5.531,5.531,0,0,1-.879-.059A.614.614,0,0,1,6,17.3a5.584,5.584,0,0,1-.057-.879v-.019A5.568,5.568,0,0,1,6,15.528.611.611,0,0,1,6.527,15a5.587,5.587,0,0,1,.879-.06h.027m0-1.957H7.406a7.46,7.46,0,0,0-1.225.09,2.561,2.561,0,0,0-1.383.711,2.6,2.6,0,0,0-.728,1.432,7.515,7.515,0,0,0-.081,1.188,7.655,7.655,0,0,0,.086,1.238,2.565,2.565,0,0,0,.706,1.384,2.606,2.606,0,0,0,1.431.733,7.531,7.531,0,0,0,1.186.084,7.648,7.648,0,0,0,1.259-.09,2.559,2.559,0,0,0,1.383-.71,2.6,2.6,0,0,0,.728-1.432,7.378,7.378,0,0,0,.081-1.188,7.528,7.528,0,0,0-.086-1.238,2.562,2.562,0,0,0-.706-1.384,2.6,2.6,0,0,0-1.431-.733,7.324,7.324,0,0,0-1.186-.085Z" transform="translate(-0.58 -0.227)" fill="#377dff"/>
    <path id="Path_20895" data-name="Path 20895" d="M7.538,6a.591.591,0,0,1,.34.114,5.121,5.121,0,0,1,.607.53l.019.018a5.134,5.134,0,0,1,.529.607.562.562,0,0,1,0,.681,5.092,5.092,0,0,1-.531.6l-.013.013a5.092,5.092,0,0,1-.6.531.585.585,0,0,1-.34.115A.577.577,0,0,1,7.2,9.1,5.039,5.039,0,0,1,6.6,8.573l-.018-.019a5.121,5.121,0,0,1-.53-.607.56.56,0,0,1,0-.68,5.1,5.1,0,0,1,.532-.606l.012-.012a5.175,5.175,0,0,1,.6-.532A.594.594,0,0,1,7.538,6m0-1.957H7.523a2.546,2.546,0,0,0-1.474.487,7.051,7.051,0,0,0-.84.734,7.074,7.074,0,0,0-.764.879,2.511,2.511,0,0,0-.469,1.447,2.554,2.554,0,0,0,.483,1.5,6.936,6.936,0,0,0,.73.842,7.047,7.047,0,0,0,.9.776,2.506,2.506,0,0,0,1.449.464,2.548,2.548,0,0,0,1.5-.487,6.808,6.808,0,0,0,.84-.733,6.981,6.981,0,0,0,.764-.879A2.506,2.506,0,0,0,11.1,7.628a2.553,2.553,0,0,0-.482-1.5,7.014,7.014,0,0,0-.731-.842A7.057,7.057,0,0,0,9,4.511a2.509,2.509,0,0,0-1.449-.465Z" transform="translate(-0.58 -0.034)" fill="#377dff"/>
    <path id="Path_20896" data-name="Path 20896" d="M16.442,5.961a1.474,1.474,0,1,1-1.474,1.475,1.474,1.474,0,0,1,1.474-1.475m0-1.957a3.431,3.431,0,1,0,3.43,3.431A3.434,3.434,0,0,0,16.442,4Z" transform="translate(-0.775 -0.033)" fill="#377dff"/>
  </g>
</svg>

