<svg xmlns="http://www.w3.org/2000/svg" xmlns:xlink="http://www.w3.org/1999/xlink" width="24" height="24" viewBox="0 0 24 24">
  <defs>
    <linearGradient id="linear-gradient" x1="0.5" x2="0.5" y2="1" gradientUnits="objectBoundingBox">
      <stop offset="0" stop-color="#ff6a6a"/>
      <stop offset="1" stop-color="#fc3e3e"/>
    </linearGradient>
  </defs>
  <g id="Group_14035" data-name="Group 14035" transform="translate(0.354)">
    <rect id="Rectangle_2464" data-name="Rectangle 2464" width="24" height="24" transform="translate(-0.353)" fill="none" opacity="0"/>
    <g id="Group_9977" data-name="Group 9977" transform="translate(3.647 3.999)">
      <path id="Path_20875" data-name="Path 20875" d="M12,6a22.66,22.66,0,0,1,3.574.242,2.5,2.5,0,0,1,2.138,2.144,22.761,22.761,0,0,1,.23,3.575v.078a22.761,22.761,0,0,1-.23,3.575,2.5,2.5,0,0,1-2.138,2.145A22.756,22.756,0,0,1,12,18h-.115a22.756,22.756,0,0,1-3.574-.241,2.5,2.5,0,0,1-2.138-2.145,22.664,22.664,0,0,1-.231-3.575v-.078a22.664,22.664,0,0,1,.231-3.575A2.5,2.5,0,0,1,8.312,6.245,22.66,22.66,0,0,1,11.886,6H12m0-2h-.118a24.734,24.734,0,0,0-3.928.273A4.493,4.493,0,0,0,4.2,8.072a24.752,24.752,0,0,0-.256,3.891v.078A24.746,24.746,0,0,0,4.2,15.964a4.492,4.492,0,0,0,3.786,3.77A24.677,24.677,0,0,0,11.88,20H12a24.734,24.734,0,0,0,3.928-.273,4.573,4.573,0,0,0,2.486-1.259,4.621,4.621,0,0,0,1.273-2.538,24.845,24.845,0,0,0,.255-3.891v-.078a24.834,24.834,0,0,0-.26-3.923A4.492,4.492,0,0,0,15.9,4.27,24.638,24.638,0,0,0,12.007,4Z" transform="translate(-3.943 -4.002)" fill="url(#linear-gradient)"/>
    </g>
    <g id="Group_14037" data-name="Group 14037" transform="translate(0.001 0.207)">
      <g id="Group_9976" data-name="Group 9976" transform="translate(12.811 13.009)">
        <ellipse id="Ellipse_607" data-name="Ellipse 607" cx="0.985" cy="0.985" rx="0.985" ry="0.985" fill="url(#linear-gradient)"/>
      </g>
      <g id="Group_14036" data-name="Group 14036" transform="translate(8.463 8.609)">
        <ellipse id="Ellipse_607-2" data-name="Ellipse 607" cx="0.985" cy="0.985" rx="0.985" ry="0.985" fill="url(#linear-gradient)"/>
      </g>
      <g id="Group_9978" data-name="Group 9978" transform="translate(13.447 8.609) rotate(45)">
        <path id="Path_20876" data-name="Path 20876" d="M11.919,14.064a.978.978,0,0,1-.978-.978V7.991a.978.978,0,0,1,1.957,0v5.094A.978.978,0,0,1,11.919,14.064Z" transform="translate(-10.941 -7.013)" fill="url(#linear-gradient)"/>
      </g>
    </g>
  </g>
</svg>

