<svg id="Group_11712" data-name="Group 11712" xmlns="http://www.w3.org/2000/svg" xmlns:xlink="http://www.w3.org/1999/xlink" width="24" height="24" viewBox="0 0 24 24">
  <defs>
    <linearGradient id="linear-gradient" x1="0.5" x2="0.5" y2="1" gradientUnits="objectBoundingBox">
      <stop offset="0" stop-color="#66bb6a"/>
      <stop offset="1" stop-color="#43a047"/>
    </linearGradient>
  </defs>
  <rect id="Rectangle_2450" data-name="Rectangle 2450" width="24" height="24" transform="translate(0)" fill="none" opacity="0"/>
  <g id="Group_9923" data-name="Group 9923" transform="translate(3.006 2.835)">
    <path id="Path_20837" data-name="Path 20837" d="M20.17,10.773l-.029-.106-.01-.077-.029-.068c-.01-.048-.405-1.254-.936-2.566-.53-1.331-1.09-2.46-1.109-2.508l-.029-.058-.039-.068-.058-.1a4.416,4.416,0,0,0-1.775-1.833,3.7,3.7,0,0,0-1.794-.473,5.49,5.49,0,0,0-2.035.473A39.792,39.792,0,0,0,7.66,5.97l-.28.174c-1.543.936-1.707,1.032-2.373,1.5A4.713,4.713,0,0,0,3.29,9.683a4.441,4.441,0,0,0-.2,2.479,10.174,10.174,0,0,0,.666,2.016A9.65,9.65,0,0,0,4.679,16.1a4.435,4.435,0,0,0,1.862,1.64,4.21,4.21,0,0,0,1.746.347c.106,0,.2,0,.309-.01a2.872,2.872,0,1,0,5.623-1.157,24.141,24.141,0,0,0,3.193-.936,4.156,4.156,0,0,0,2.759-2.652A4.389,4.389,0,0,0,20.17,10.773Zm-7.8,6.79a.947.947,0,0,1-1.871.2c.338-.068.781-.174,1.456-.318l.309-.068c.029-.01.048-.01.077-.019A.734.734,0,0,1,12.367,17.563Zm5.961-4.823c-.231.752-.694,1.071-1.64,1.456a43.051,43.051,0,0,1-5.17,1.37c-1.765.405-1.89.424-2.614.54a4.214,4.214,0,0,1-.617.048,2.309,2.309,0,0,1-.936-.174,2.586,2.586,0,0,1-1.08-.965,9.66,9.66,0,0,1-.733-1.563,8.985,8.985,0,0,1-.55-1.63,2.428,2.428,0,0,1,.106-1.437A2.807,2.807,0,0,1,6.126,9.22c.6-.424.7-.492,2.257-1.427a42.258,42.258,0,0,1,4.668-2.6,3.415,3.415,0,0,1,1.312-.338,1.829,1.829,0,0,1,.878.241,2.738,2.738,0,0,1,1.09,1.215s.53,1.09,1.051,2.373c.511,1.264.887,2.431.887,2.431A2.7,2.7,0,0,1,18.327,12.741Z" transform="translate(-3.001 -2.922)" fill="url(#linear-gradient)"/>
  </g>
</svg>

