<svg xmlns="http://www.w3.org/2000/svg" xmlns:xlink="http://www.w3.org/1999/xlink" width="24" height="24" viewBox="0 0 24 24">
  <defs>
    <linearGradient id="linear-gradient" x1="0.5" x2="0.5" y2="1" gradientUnits="objectBoundingBox">
      <stop offset="0" stop-color="#b183f8"/>
      <stop offset="1" stop-color="#9369eb"/>
    </linearGradient>
  </defs>
  <g id="vuesax_linear_shop" data-name="vuesax/linear/shop" transform="translate(-172 -252)">
    <g id="shop">
      <path id="Union_25" data-name="Union 25" d="M16301.439,23383.879h-3.655a5.354,5.354,0,0,1-4.019-1.291,5.411,5.411,0,0,1-1.282-4.031v-3.168c0-.016,0-.031,0-.047a3.247,3.247,0,0,1-.468-2.064l.191-1.939v-.031c.322-2.318,1.423-3.3,3.676-3.3h7.555c2.253,0,3.354.986,3.67,3.3,0,.01.006.021.006.031l.2,1.939a3.262,3.262,0,0,1-.44,2.021.891.891,0,0,1,0,.09v3.168a4.618,4.618,0,0,1-5.307,5.322Zm-.889-1.775v-.877a1.082,1.082,0,0,0-.176-.693,1.044,1.044,0,0,0-.7-.182,1.026,1.026,0,0,0-.69.182,1.082,1.082,0,0,0-.176.693v.877Zm-6.3-3.547a3.876,3.876,0,0,0,.763,2.775,3.154,3.154,0,0,0,2.024.742v-.848a2.64,2.64,0,1,1,5.28,0v.846a3.12,3.12,0,0,0,2.015-.74,3.879,3.879,0,0,0,.769-2.775v-1.877a3.333,3.333,0,0,1-.992.148,3.2,3.2,0,0,1-2.144-.846c-.031-.029-.062-.057-.093-.086a3.05,3.05,0,0,1-4.409-.021c-.035.035-.071.07-.108.1a3.19,3.19,0,0,1-2.145.85,3.317,3.317,0,0,1-.96-.139Zm9.858-3.506a1.441,1.441,0,0,0,1.086-.459,1.466,1.466,0,0,0,.353-1.137l-.2-1.922a2.314,2.314,0,0,0-.524-1.41c-.161-.15-.478-.348-1.391-.348h-1.136l.366,3.738a3.1,3.1,0,0,1,.015.328A1.51,1.51,0,0,0,16304.112,23375.051Zm-5.658-1.365a1.256,1.256,0,0,0,.3.975,1.233,1.233,0,0,0,2.156-.721.068.068,0,0,1,0-.016l-.413-4.148h-1.652Zm-3.967-3.562a2.383,2.383,0,0,0-.524,1.41l-.187,1.922a1.463,1.463,0,0,0,.353,1.137,1.438,1.438,0,0,0,1.085.459,1.493,1.493,0,0,0,1.438-1.3l.395-3.973h-1.163C16294.97,23369.775,16294.648,23369.973,16294.487,23370.123Z" transform="translate(-16115.688 -23111.939)" fill="url(#linear-gradient)"/>
      <path id="Vector" d="M0,0H24V24H0Z" transform="translate(172 252)" fill="none" opacity="0"/>
    </g>
  </g>
</svg>

