<svg xmlns="http://www.w3.org/2000/svg" xmlns:xlink="http://www.w3.org/1999/xlink" width="83.387" height="33" viewBox="0 0 83.387 33">
  <defs>
    <linearGradient id="linear-gradient" x1="0.5" x2="0.5" y2="1" gradientUnits="objectBoundingBox">
      <stop offset="0" stop-color="#649aff"/>
      <stop offset="1" stop-color="#377dff"/>
    </linearGradient>
  </defs>
  <g id="Group_9801" data-name="Group 9801" transform="translate(84.8 5183.184)">
    <rect id="Rectangle_2383" data-name="Rectangle 2383" width="83" height="33" transform="translate(-84.413 -5183.184)" fill="none"/>
    <g id="Group_9793" data-name="Group 9793" transform="translate(-55.584 -5154.473)">
      <path id="Path_20518" data-name="Path 20518" d="M1448.256-4038.665a28.754,28.754,0,0,1-6.467-.44,1.858,1.858,0,0,1-1.318-2.274,1.858,1.858,0,0,1,2.274-1.317h0a27.623,27.623,0,0,0,5.511.315,31.2,31.2,0,0,0,5.258-.27l.085-.014a1.858,1.858,0,0,1,2.13,1.539,1.858,1.858,0,0,1-1.539,2.13l-.071.012A33.953,33.953,0,0,1,1448.256-4038.665Z" transform="translate(-1440.408 4042.758)" fill="url(#linear-gradient)"/>
    </g>
    <g id="Group_9794" data-name="Group 9794" transform="translate(-76.722 -5176.184)">
      <path id="Path_20519" data-name="Path 20519" d="M344.431-5176.184a28.726,28.726,0,0,1,6.467.44,1.858,1.858,0,0,1,1.317,2.273,1.858,1.858,0,0,1-2.274,1.317h0a27.672,27.672,0,0,0-5.511-.314,31.114,31.114,0,0,0-5.258.271l-.085.014a1.858,1.858,0,0,1-2.13-1.539,1.858,1.858,0,0,1,1.539-2.13l.071-.012A33.95,33.95,0,0,1,344.431-5176.184Z" transform="translate(-336.934 5176.184)" fill="url(#linear-gradient)"/>
    </g>
    <path id="Path_20520" data-name="Path 20520" d="M-1.52-5087.15c-.052-.55-.107-.9-.127-1.012a5.976,5.976,0,0,0-.539-1.653,5.855,5.855,0,0,0-1.012-1.443,5.66,5.66,0,0,0-1.483-1.115,5.551,5.551,0,0,0-1.861-.584l-.107-.013a41.317,41.317,0,0,0-4.385-.2h0a41.311,41.311,0,0,0-4.384.2l-.107.013a5.553,5.553,0,0,0-1.861.584,5.656,5.656,0,0,0-1.482,1.115,5.856,5.856,0,0,0-1.012,1.443,5.978,5.978,0,0,0-.539,1.651c-.02.115-.075.461-.127,1.013-.07.739-.106,1.538-.107,2.377v.01c0,.839.037,1.638.107,2.376.052.552.108.9.128,1.014a5.951,5.951,0,0,0,.35,1.23,29.394,29.394,0,0,1-4.11-.3l-.028,0a1.82,1.82,0,0,1-.989-.475,1.82,1.82,0,0,1-.471-.99l0-.026h0a30.943,30.943,0,0,1-.295-4.687v-1.622a1.858,1.858,0,0,0-1.858-1.858,1.858,1.858,0,0,0-1.858,1.858v1.622a30.964,30.964,0,0,1-.295,4.686l0,.028a1.819,1.819,0,0,1-.471.99,1.82,1.82,0,0,1-.989.475l-.051.009a19.631,19.631,0,0,1-3.061.3,19.679,19.679,0,0,1-3.059-.3l-.053-.009a1.82,1.82,0,0,1-.989-.475,1.822,1.822,0,0,1-.471-.99l0-.026h0a30.936,30.936,0,0,1-.295-4.687v-1.622a1.858,1.858,0,0,0-1.858-1.858,1.858,1.858,0,0,0-1.858,1.858v1.622a30.939,30.939,0,0,1-.295,4.686l0,.028a1.82,1.82,0,0,1-.471.99,1.82,1.82,0,0,1-.989.475l-.051.009a19.638,19.638,0,0,1-3.061.3,19.679,19.679,0,0,1-3.059-.3l-.053-.009a1.82,1.82,0,0,1-.989-.475,1.82,1.82,0,0,1-.471-.99l0-.026h0a30.975,30.975,0,0,1-.295-4.687v-1.622a1.858,1.858,0,0,0-1.858-1.858,1.858,1.858,0,0,0-1.858,1.858v1.622a30.931,30.931,0,0,1-.295,4.686l0,.028a1.819,1.819,0,0,1-.471.99,1.82,1.82,0,0,1-.989.475l-.028,0a30.9,30.9,0,0,1-4.684.31h-.215c-.091,0-1.748.047-5.416.047-3.72,0-5.638-.046-5.7-.047h-.205a30.822,30.822,0,0,1-4.684-.31l-.028,0a1.82,1.82,0,0,1-.989-.475,1.817,1.817,0,0,1-.471-.99l0-.026h0a30.959,30.959,0,0,1-.295-4.687v-1.622a1.858,1.858,0,0,0-1.858-1.858,1.858,1.858,0,0,0-1.858,1.858v1.622a34,34,0,0,0,.348,5.313,5.5,5.5,0,0,0,1.5,3.006l.016.016a5.5,5.5,0,0,0,3,1.509,33.945,33.945,0,0,0,5.313.364h.143c.238.006,2.133.049,5.773.049,3.584,0,5.248-.042,5.5-.049h.143a33.986,33.986,0,0,0,5.313-.364,5.5,5.5,0,0,0,3-1.509l0,0,0,0a5.5,5.5,0,0,0,2.99,1.507,23.513,23.513,0,0,0,3.523.363l.212,0h.1l.108,0a23.513,23.513,0,0,0,3.523-.363,5.5,5.5,0,0,0,2.99-1.507l0,0,0,0a5.5,5.5,0,0,0,2.99,1.507,23.506,23.506,0,0,0,3.523.363l.212,0,.212,0a23.513,23.513,0,0,0,3.523-.363,5.5,5.5,0,0,0,2.99-1.507l0,0,0,0a5.5,5.5,0,0,0,3,1.509,32.042,32.042,0,0,0,4.546.356q.37.007.767.008h6.075c.658.03,1.461.053,2.4.053h0a41.394,41.394,0,0,0,4.382-.2l.11-.014a5.551,5.551,0,0,0,1.861-.584A5.669,5.669,0,0,0-3.2-5078.28a5.867,5.867,0,0,0,1.012-1.444,5.971,5.971,0,0,0,.539-1.653c.02-.116.075-.462.127-1.011.07-.739.106-1.538.106-2.377v-.01C-1.414-5085.613-1.45-5086.413-1.52-5087.15Zm-3.7,4.413c-.045.477-.09.732-.09.732a2.051,2.051,0,0,1-1.715,1.739l-.031,0c-.189.021-1.2.128-2.882.164q-.509.011-1.1.012c-.912,0-1.685-.023-2.3-.053-.958-.046-1.539-.107-1.677-.123l-.031,0A2.051,2.051,0,0,1-16.759-5082s-.045-.256-.09-.732-.089-1.16-.09-2.032.046-1.561.09-2.032.09-.732.09-.732a2.051,2.051,0,0,1,1.715-1.739l.031,0a38.1,38.1,0,0,1,3.979-.176,38.1,38.1,0,0,1,3.979.176l.031,0a2.051,2.051,0,0,1,1.715,1.739s.045.256.09.732.089,1.16.09,2.032S-5.175-5083.209-5.219-5082.737Z" transform="translate(0 -81.424)" fill="url(#linear-gradient)"/>
    <g id="Group_9795" data-name="Group 9795" transform="translate(-20.274 -5161.563)">
      <path id="Path_20521" data-name="Path 20521" d="M3284.517-4219.342h-.589c-.06,0-.12,0-.178-.009Q3284.12-4219.343,3284.517-4219.342Z" transform="translate(-3283.75 4223.058)" fill="url(#linear-gradient)"/>
      <path id="Path_20522" data-name="Path 20522" d="M3649.369-4412.858c-.339.007-.705.011-1.1.012-.912,0-1.685-.023-2.3-.053h3.008A1.873,1.873,0,0,1,3649.369-4412.858Z" transform="translate(-3639.032 4412.899)" fill="url(#linear-gradient)"/>
    </g>
    <g id="Group_9796" data-name="Group 9796" transform="translate(-48.228 -5157.85)">
      <path id="Path_20523" data-name="Path 20523" d="M1824.652-4219.067h-.1l-.108,0Z" transform="translate(-1824.44 4219.07)" fill="url(#linear-gradient)"/>
    </g>
    <g id="Group_9797" data-name="Group 9797" transform="translate(-34.557 -5157.85)">
      <path id="Path_20524" data-name="Path 20524" d="M2538.13-4219.067h.1l.108,0Z" transform="translate(-2538.13 4219.07)" fill="url(#linear-gradient)"/>
    </g>
    <g id="Group_9798" data-name="Group 9798" transform="translate(-34.769 -5157.85)">
      <path id="Path_20525" data-name="Path 20525" d="M2527.272-4219.067h-.1l-.108,0Z" transform="translate(-2527.06 4219.07)" fill="url(#linear-gradient)"/>
    </g>
    <g id="Group_9799" data-name="Group 9799" transform="translate(-37.648 -5154.109)">
      <path id="Path_20526" data-name="Path 20526" d="M2379.722-4020.025c-.367,0-.789-.009-1.23-.035a1.858,1.858,0,0,1-1.743-1.967,1.858,1.858,0,0,1,1.967-1.743,18.054,18.054,0,0,0,2.016,0,1.857,1.857,0,0,1,1.98,1.726,1.858,1.858,0,0,1-1.727,1.982C2380.954-4020.06,2380.443-4020.025,2379.722-4020.025Z" transform="translate(-2376.746 4023.773)" fill="url(#linear-gradient)"/>
    </g>
  </g>
</svg>
